<svg width="57" height="30" viewBox="0 0 57 30" fill="none" xmlns="http://www.w3.org/2000/svg">
<path d="M20.2259 0.686725C13.9137 2.59814 9.33503 8.28362 9.33503 15.0001C9.33503 21.7167 13.9137 27.4021 20.2259 29.3136C18.7525 29.7597 17.1846 30.0003 15.5584 30.0003C6.96572 30.0003 0 23.2845 0 15.0001C0 6.71579 6.96572 0 15.5584 0C17.1846 0 18.7525 0.240566 20.2259 0.686725Z" fill="#0051FF"/>
<path d="M42.9412 15.0001C42.9412 23.2845 35.9754 30.0003 27.3828 30.0003C18.7901 30.0003 11.8244 23.2845 11.8244 15.0001C11.8244 6.71579 18.7901 0 27.3828 0C35.9754 0 42.9412 6.71579 42.9412 15.0001Z" fill="#082E88"/>
<path d="M45.1193 15.0001C45.1193 8.28362 40.5407 2.59811 34.2285 0.686725C35.7019 0.24053 37.2698 0 38.896 0C44.2742 0 49.0151 2.63099 51.8094 6.63086C50.1393 9.02147 49.1645 11.9011 49.1645 15.0001C49.1645 18.0992 50.1393 20.9788 51.8094 23.3694C49.0151 27.3693 44.2742 30.0003 38.896 30.0003C37.2698 30.0003 35.7019 29.7598 34.2285 29.3136C40.5407 27.4021 45.1193 21.7167 45.1193 15.0001Z" fill="#0051FF"/>
<path d="M54.2988 6.63086C52.6287 9.02147 51.6539 11.9011 51.6539 15.0001C51.6539 18.0992 52.6287 20.9788 54.2988 23.3694C55.9689 20.9788 56.9437 18.0992 56.9437 15.0001C56.9437 11.9011 55.9689 9.02147 54.2988 6.63086Z" fill="#082E88"/>
</svg>
