<svg width="78" height="56" viewBox="0 0 78 56" fill="none" xmlns="http://www.w3.org/2000/svg">
<path d="M45.2218 30.0921C42.862 30.0921 40.8773 29.2873 39.2678 27.6779C37.6583 26.0684 36.8536 24.0837 36.8536 21.7239C36.8536 19.364 37.6583 17.3794 39.2678 15.7699C40.8773 14.1604 42.862 13.3557 45.2218 13.3557C47.5817 13.3557 49.5663 14.1604 51.1758 15.7699C52.7853 17.3794 53.59 19.364 53.59 21.7239C53.59 24.0837 52.7853 26.0684 51.1758 27.6779C49.5663 29.2873 47.5817 30.0921 45.2218 30.0921ZM12.5523 43.4477V0H77.8913V43.4477H12.5523ZM23.4979 39.2636H66.9457C66.9457 37.3947 67.6082 35.8006 68.9331 34.4812C70.2553 33.1646 71.8453 32.5063 73.703 32.5063V10.9414C71.8341 10.9414 70.24 10.2803 68.9206 8.95817C67.604 7.6332 66.9457 6.04185 66.9457 4.18411H23.4979C23.4979 6.05301 22.8355 7.64715 21.5105 8.96654C20.1883 10.2831 18.5983 10.9414 16.7406 10.9414V32.5063C18.6095 32.5063 20.2037 33.1688 21.523 34.4938C22.8396 35.8159 23.4979 37.4059 23.4979 39.2636ZM0 56.0001V12.3891H4.18411V51.816H65.498V56.0001H0Z" fill="white"/>
</svg>
