<svg width="80" height="80" viewBox="0 0 80 80" fill="none" xmlns="http://www.w3.org/2000/svg">
<path d="M45 32.5C45 31.837 44.7366 31.2011 44.2678 30.7322C43.7989 30.2634 43.163 30 42.5 30H22.5C21.837 30 21.2011 30.2634 20.7322 30.7322C20.2634 31.2011 20 31.837 20 32.5C20 33.163 20.2634 33.7989 20.7322 34.2678C21.2011 34.7366 21.837 35 22.5 35H42.5C43.163 35 43.7989 34.7366 44.2678 34.2678C44.7366 33.7989 45 33.163 45 32.5ZM41.6667 42.5C41.6667 41.837 41.4033 41.2011 40.9344 40.7322C40.4656 40.2634 39.8297 40 39.1667 40H22.5C21.837 40 21.2011 40.2634 20.7322 40.7322C20.2634 41.2011 20 41.837 20 42.5C20 43.163 20.2634 43.7989 20.7322 44.2678C21.2011 44.7366 21.837 45 22.5 45H39.1667C39.8297 45 40.4656 44.7366 40.9344 44.2678C41.4033 43.7989 41.6667 43.163 41.6667 42.5ZM42.5 50C43.163 50 43.7989 50.2634 44.2678 50.7322C44.7366 51.2011 45 51.837 45 52.5C45 53.163 44.7366 53.7989 44.2678 54.2678C43.7989 54.7366 43.163 55 42.5 55H22.5C21.837 55 21.2011 54.7366 20.7322 54.2678C20.2634 53.7989 20 53.163 20 52.5C20 51.837 20.2634 51.2011 20.7322 50.7322C21.2011 50.2634 21.837 50 22.5 50H42.5Z" fill="white"/>
<path fill-rule="evenodd" clip-rule="evenodd" d="M20 72.5001H63.3333C65.7645 72.5001 68.0961 71.5343 69.8151 69.8152C71.5342 68.0961 72.5 65.7646 72.5 63.3334V45.0001C72.5 44.337 72.2366 43.7011 71.7678 43.2323C71.2989 42.7635 70.663 42.5001 70 42.5001H59.1667V16.4767C59.1667 11.7334 53.8033 8.97341 49.9433 11.7301L49.36 12.1467C48.0826 13.0535 46.5544 13.5395 44.9879 13.5371C43.4214 13.5347 41.8946 13.0441 40.62 12.1334C38.4921 10.619 35.9452 9.80518 33.3333 9.80518C30.7215 9.80518 28.1746 10.619 26.0467 12.1334C24.7721 13.0441 23.2453 13.5347 21.6788 13.5371C20.1123 13.5395 18.584 13.0535 17.3067 12.1467L16.7233 11.7301C12.8633 8.97341 7.5 11.7301 7.5 16.4767V60.0001C7.5 63.3153 8.81696 66.4947 11.1612 68.8389C13.5054 71.1831 16.6848 72.5001 20 72.5001ZM28.9533 16.2001C30.2332 15.2916 31.7638 14.8035 33.3333 14.8035C34.9028 14.8035 36.4335 15.2916 37.7133 16.2001C39.8357 17.7171 42.3785 18.5341 44.9873 18.5371C47.5961 18.5401 50.1408 17.7289 52.2667 16.2167L52.85 15.8001C52.9745 15.7114 53.121 15.6587 53.2734 15.6477C53.4258 15.6367 53.5783 15.6679 53.7142 15.7377C53.8502 15.8076 53.9643 15.9135 54.0441 16.0438C54.1239 16.1741 54.1663 16.3239 54.1667 16.4767V63.3334C54.1667 64.8334 54.5267 66.2501 55.1667 67.5001H20C18.0109 67.5001 16.1032 66.7099 14.6967 65.3034C13.2902 63.8969 12.5 61.9892 12.5 60.0001V16.4767C12.5004 16.3239 12.5428 16.1741 12.6226 16.0438C12.7024 15.9135 12.8165 15.8076 12.9524 15.7377C13.0883 15.6679 13.2409 15.6367 13.3933 15.6477C13.5457 15.6587 13.6922 15.7114 13.8167 15.8001L14.4 16.2167C16.5258 17.7289 19.0705 18.5401 21.6793 18.5371C24.2881 18.5341 26.831 17.7171 28.9533 16.2001ZM59.1667 63.3334V47.5001H67.5V63.3334C67.5 64.4385 67.061 65.4983 66.2796 66.2797C65.4982 67.0611 64.4384 67.5001 63.3333 67.5001C62.2283 67.5001 61.1685 67.0611 60.3871 66.2797C59.6057 65.4983 59.1667 64.4385 59.1667 63.3334Z" fill="white"/>
</svg>
