<svg width="21" height="20" viewBox="0 0 21 20" fill="none" xmlns="http://www.w3.org/2000/svg">
<path d="M19.9861 9.41044C19.6461 3.61044 14.3761 -0.85955 8.30614 0.14045C4.12614 0.83045 0.776152 4.22043 0.126152 8.40043C-0.253848 10.8204 0.246174 13.1104 1.33617 15.0004L0.446159 18.3104C0.246159 19.0604 0.93614 19.7404 1.67614 19.5304L4.93615 18.6304C6.41615 19.5004 8.14615 20.0004 9.99615 20.0004C15.6361 20.0004 20.3161 15.0304 19.9861 9.41044ZM14.8862 13.7204C14.7962 13.9004 14.6861 14.0704 14.5461 14.2304C14.2961 14.5004 14.0261 14.7004 13.7261 14.8204C13.4261 14.9504 13.0961 15.0104 12.7461 15.0104C12.2361 15.0104 11.6861 14.8905 11.1161 14.6405C10.5361 14.3905 9.96617 14.0604 9.39617 13.6504C8.81617 13.2304 8.27616 12.7604 7.75616 12.2504C7.23616 11.7304 6.77613 11.1804 6.35613 10.6104C5.94613 10.0404 5.61615 9.47043 5.37615 8.90043C5.13615 8.33043 5.01617 7.78045 5.01617 7.26045C5.01617 6.92044 5.07616 6.59044 5.19616 6.29044C5.31616 5.98044 5.50618 5.70045 5.77618 5.45045C6.09618 5.13045 6.44615 4.98045 6.81615 4.98045C6.95615 4.98045 7.09613 5.01044 7.22613 5.07044C7.35613 5.13044 7.47615 5.22044 7.56615 5.35044L8.72613 6.99043C8.81613 7.12043 8.88614 7.23043 8.92614 7.34043C8.97614 7.45043 8.99615 7.55043 8.99615 7.65043C8.99615 7.77043 8.95616 7.89045 8.88616 8.01045C8.81616 8.13045 8.72613 8.25043 8.60613 8.37043L8.22613 8.77042C8.16613 8.83043 8.14617 8.89044 8.14617 8.97044C8.14617 9.01044 8.15613 9.05043 8.16613 9.09043C8.18613 9.13043 8.19617 9.16044 8.20617 9.19044C8.29617 9.36044 8.45614 9.57042 8.67614 9.83042C8.90614 10.0904 9.14618 10.3604 9.40618 10.6204C9.67618 10.8904 9.93617 11.1304 10.2062 11.3604C10.4662 11.5804 10.6861 11.7304 10.8561 11.8204C10.8861 11.8304 10.9162 11.8504 10.9462 11.8604C10.9862 11.8804 11.0262 11.8804 11.0762 11.8804C11.1662 11.8804 11.2262 11.8504 11.2862 11.7904L11.6661 11.4104C11.7961 11.2804 11.9162 11.1904 12.0262 11.1304C12.1462 11.0604 12.2562 11.0204 12.3862 11.0204C12.4862 11.0204 12.5862 11.0404 12.6962 11.0904C12.8062 11.1404 12.9261 11.2004 13.0461 11.2904L14.7062 12.4704C14.8362 12.5604 14.9261 12.6704 14.9861 12.7904C15.0361 12.9204 15.0662 13.0404 15.0662 13.1804C15.0062 13.3504 14.9662 13.5404 14.8862 13.7204Z" fill="white"/>
</svg>
