<svg width="80" height="80" viewBox="0 0 80 80" fill="none" xmlns="http://www.w3.org/2000/svg">
<path d="M62.4 49.1999C63.5667 46.3666 64.2 43.3332 64.2 39.9999C64.2 37.5999 63.8333 35.2999 63.2 33.1666C61.0333 33.6666 58.7667 33.9332 56.4 33.9332C51.5532 33.9384 46.7763 32.7783 42.4718 30.5506C38.1673 28.323 34.4614 25.0931 31.6667 21.1332C28.677 28.3671 23.0371 34.1859 15.9 37.3999C15.7667 38.2332 15.7667 39.1332 15.7667 39.9999C15.7667 43.1823 16.3935 46.3335 17.6113 49.2736C18.8292 52.2137 20.6142 54.8852 22.8644 57.1355C27.4091 61.6801 33.5729 64.2332 40 64.2332C43.5 64.2332 46.8667 63.4666 49.9 62.0999C51.8 65.7332 52.6667 67.5332 52.6 67.5332C47.1333 69.3666 42.9 70.2666 40 70.2666C31.9333 70.2666 24.2333 67.0999 18.5667 61.3999C15.12 57.9638 12.5579 53.7432 11.1 49.0999H6.66667V33.9332H10.3C11.4008 28.5749 13.9316 23.6146 17.624 19.5785C21.3163 15.5425 26.0324 12.5813 31.2718 11.0091C36.5112 9.43694 42.0785 9.31248 47.3829 10.6489C52.6873 11.9854 57.531 14.7329 61.4 18.5999C65.6007 22.7841 68.466 28.1202 69.6333 33.9332H73.3333V49.0999H73.1333L61.2667 59.9999L43.6 57.9999V52.4332H59.7L62.4 49.1999ZM30.9 39.2332C31.9 39.2332 32.8667 39.6332 33.5667 40.3666C34.2702 41.0758 34.6649 42.0343 34.6649 43.0332C34.6649 44.0322 34.2702 44.9907 33.5667 45.6999C32.8667 46.3999 31.9 46.7999 30.9 46.7999C28.8 46.7999 27.1 45.1332 27.1 43.0332C27.1 40.9332 28.8 39.2332 30.9 39.2332ZM49.0667 39.2332C51.1667 39.2332 52.8333 40.9332 52.8333 43.0332C52.8333 45.1332 51.1667 46.7999 49.0667 46.7999C46.9667 46.7999 45.2667 45.1332 45.2667 43.0332C45.2667 42.0254 45.667 41.0589 46.3797 40.3462C47.0923 39.6336 48.0588 39.2332 49.0667 39.2332Z" fill="white"/>
</svg>
