<svg width="220" height="34" viewBox="0 0 220 34" fill="none" xmlns="http://www.w3.org/2000/svg">
<path d="M69.1337 24.2567H84.9952V19.8539H75.0817V7.75185H69.1337V24.2567Z" fill="white"/>
<path d="M95.9304 24.6256C99.0753 24.6256 102.084 23.911 103.679 22.8736L102.197 20.2919C100.99 20.9834 98.6423 21.4905 96.3178 21.4905C94.1072 21.4905 92.0561 20.9373 91.4408 19.5542H103.747C103.861 19.1623 103.907 18.6552 103.907 18.3094C103.907 14.4829 100.374 11.9703 95.0188 11.9703C89.5721 11.9703 85.7663 14.5751 85.7663 18.2864C85.7663 22.159 89.8684 24.6256 95.9304 24.6256ZM91.3497 17.226C91.5548 15.889 93.0361 14.9439 94.9732 14.9439C96.8647 14.9439 98.4144 15.866 98.4828 17.226H91.3497Z" fill="white"/>
<path d="M109.916 24.2567H116.821L123.248 12.3621H117.528L113.426 20.9143H113.403L109.301 12.3621H103.58L109.916 24.2567Z" fill="white"/>
<path d="M132.919 24.6256C136.064 24.6256 139.072 23.911 140.667 22.8736L139.186 20.2919C137.978 20.9834 135.631 21.4905 133.306 21.4905C131.096 21.4905 129.044 20.9373 128.429 19.5542H140.735C140.849 19.1623 140.895 18.6552 140.895 18.3094C140.895 14.4829 137.363 11.9703 132.007 11.9703C126.56 11.9703 122.755 14.5751 122.755 18.2864C122.755 22.159 126.857 24.6256 132.919 24.6256ZM128.338 17.226C128.543 15.889 130.024 14.9439 131.962 14.9439C133.853 14.9439 135.403 15.866 135.471 17.226H128.338Z" fill="white"/>
<path d="M152.645 11.9703C150.526 11.9703 148.612 13.169 147.746 15.1053H147.723L146.994 12.3621H142.504V24.2567H147.905V18.9549C147.905 16.6958 148.817 15.2666 150.344 15.2666C151.46 15.2666 152.235 16.3962 152.326 18.1711L157.249 17.203C157.067 14.0219 155.266 11.9703 152.645 11.9703Z" fill="white"/>
<path d="M158.6 24.2567H164.548V19.2084H171.704C176.353 19.2084 178.928 17.203 178.951 13.5608C178.951 9.82648 176.376 7.75185 171.75 7.75185H158.6V24.2567ZM164.548 15.8199V11.1404H169.767C171.841 11.1404 172.98 11.9703 172.98 13.4686C172.98 14.99 171.841 15.8199 169.767 15.8199H164.548Z" fill="white"/>
<path d="M185.407 24.6256C188.643 24.6256 191.218 23.496 192.381 21.675H192.403L193.133 24.2567H197.805V16.5575C197.805 13.63 194.386 11.9703 189.213 11.9703C185.498 11.9703 181.806 12.9845 179.527 14.552L180.94 17.3874C183.174 15.9351 186.364 15.0131 189.213 15.0131C191.196 15.0131 192.495 15.4511 192.495 16.0273C192.495 16.2579 192.198 16.4423 191.697 16.4884L187.207 16.9033C182.33 17.3643 179.482 18.9779 179.482 21.3522C179.482 23.4269 181.67 24.6256 185.407 24.6256ZM187.321 21.3983C185.726 21.3983 184.883 21.0526 184.883 20.4532C184.883 19.8308 185.817 19.4851 187.572 19.3468L192.403 18.9088V18.9549C192.403 20.4071 190.375 21.3983 187.321 21.3983Z" fill="white"/>
<path d="M206.179 29.4664C212.697 29.4664 216.958 26.5158 216.958 21.9977V12.3621H211.58V17.3413C211.58 19.6003 210.122 21.0526 207.934 21.0526C206.042 21.0526 204.789 19.7156 204.789 17.687V12.3621H199.388L199.365 18.2633C199.365 21.7441 201.872 24.2567 205.746 24.2567C208.549 24.2567 210.828 22.9197 211.557 20.8682H211.58V21.7441C211.58 24.0723 209.301 25.5937 205.814 25.5937C203.672 25.5937 201.188 24.81 199.456 23.8418L197.792 27.3687C199.638 28.5213 202.988 29.4664 206.179 29.4664Z" fill="white"/>
<path d="M216.426 3.3997L219.867 14.3569L208.765 11.8927L216.426 3.3997Z" fill="white"/>
<path d="M22.1403 0.778281C15.2306 2.94454 10.2186 9.38802 10.2186 17C10.2186 24.612 15.2306 31.0555 22.1403 33.2217C20.5273 33.7274 18.811 34 17.031 34C7.62502 34 0 26.3888 0 17C0 7.61115 7.62502 0 17.031 0C18.811 0 20.5273 0.272639 22.1403 0.778281Z" fill="white"/>
<path d="M47.0055 17C47.0055 26.3888 39.3804 34 29.9745 34C20.5686 34 12.9435 26.3888 12.9435 17C12.9435 7.61116 20.5686 0 29.9745 0C39.3804 0 47.0055 7.61116 47.0055 17Z" fill="white"/>
<path d="M49.3898 17C49.3898 9.38802 44.3778 2.94449 37.4681 0.778281C39.081 0.272598 40.7973 0 42.5774 0C48.4647 0 53.6543 2.98176 56.7131 7.5149C54.8849 10.2242 53.8178 13.4877 53.8178 17C53.8178 20.5123 54.8849 23.7758 56.7131 26.4851C53.6543 31.0182 48.4647 34 42.5774 34C40.7973 34 39.081 33.7274 37.4681 33.2217C44.3778 31.0555 49.3898 24.612 49.3898 17Z" fill="white"/>
<path d="M59.4381 7.5149C57.6099 10.2242 56.5428 13.4877 56.5428 17C56.5428 20.5123 57.6099 23.7758 59.4381 26.4851C61.2663 23.7758 62.3333 20.5123 62.3333 17C62.3333 13.4877 61.2663 10.2242 59.4381 7.5149Z" fill="white"/>
</svg>
