<svg width="38" height="39" viewBox="0 0 38 39" fill="none" xmlns="http://www.w3.org/2000/svg">
<path d="M34.8337 17.6958V21.0191C34.8337 21.9064 34.137 22.6324 33.2503 22.6646H30.147C28.437 22.6646 26.8695 21.3901 26.727 19.6478C26.632 18.6315 27.012 17.6796 27.677 17.0182C28.2628 16.4052 29.0703 16.0503 29.957 16.0503H33.2503C34.137 16.0825 34.8337 16.8085 34.8337 17.6958Z" fill="#C8EE44"/>
<path d="M32.4108 25.0863H30.1467C27.1383 25.0863 24.605 22.7794 24.3517 19.8432C24.2092 18.1654 24.8108 16.4877 26.0142 15.2938C27.0275 14.2291 28.4367 13.6322 29.9567 13.6322H32.4108C32.87 13.6322 33.25 13.245 33.2025 12.7771C32.8542 8.85692 30.305 6.1789 26.5208 5.72719C26.1408 5.66266 25.745 5.64653 25.3333 5.64653H11.0833C10.64 5.64653 10.2125 5.67879 9.80084 5.74332C5.76333 6.25957 3.16667 9.32477 3.16667 13.7128V25.0057C3.16667 29.4583 6.71333 33.072 11.0833 33.072H25.3333C29.7667 33.072 32.8225 30.2488 33.2025 25.9414C33.25 25.4735 32.87 25.0863 32.4108 25.0863ZM20.5833 15.7294H11.0833C10.4342 15.7294 9.89584 15.1809 9.89584 14.5195C9.89584 13.858 10.4342 13.3095 11.0833 13.3095H20.5833C21.2325 13.3095 21.7708 13.858 21.7708 14.5195C21.7708 15.1809 21.2325 15.7294 20.5833 15.7294Z" fill="#FFFFFE"/>
</svg>
