<svg width="91" height="57" viewBox="0 0 91 57" fill="none" xmlns="http://www.w3.org/2000/svg">
<mask id="mask0_1_949" style="mask-type:luminance" maskUnits="userSpaceOnUse" x="16" y="8" width="89" height="48">
<path d="M104.238 8.07773H16.025V55.8801H104.238V8.07773Z" fill="white"/>
</mask>
<g mask="url(#mask0_1_949)">
<path d="M72.7923 56.3857C73.7482 54.2314 75.1207 52.1756 77.1208 50.929C79.0039 49.7553 81.2826 49.3907 83.2556 48.3757C84.1645 47.908 85.003 47.3035 85.7339 46.589C85.5438 48.4925 85.3425 50.4376 84.5356 52.172C83.9394 53.4534 83.0198 54.6033 82.7054 55.9811" fill="#01527F"/>
<g opacity="0.33">
<path d="M85.3332 47.3913C84.6234 48.6826 83.7746 49.8574 82.7489 50.916C81.8016 51.8938 80.7533 52.7633 79.7723 53.7039C79.6934 52.7643 79.5426 51.8324 79.3189 50.9165C79.2849 50.7773 79.0738 50.8487 79.1077 50.9875C79.3348 51.9181 79.4853 52.8648 79.5598 53.8198C79.5619 53.8467 79.5767 53.8628 79.5908 53.8789C79.4989 53.969 79.4032 54.0553 79.3128 54.1472C78.7112 54.7581 78.1725 55.4291 77.7852 56.1975C77.7205 56.3258 77.919 56.4273 77.9836 56.2991C78.7017 54.8745 79.9378 53.8393 81.1049 52.7928C81.3815 52.5448 81.6573 52.2939 81.9293 52.0387C81.9473 52.0439 81.9639 52.0527 81.9859 52.0472C82.6845 51.8704 83.3902 51.7249 84.102 51.6119C84.2423 51.5896 84.2314 51.3669 84.0896 51.3894C83.4569 51.4899 82.8295 51.6195 82.2066 51.7689C82.9168 51.087 83.5979 50.3735 84.1915 49.5903C84.6937 48.9277 85.1315 48.221 85.5317 47.493C85.6009 47.3669 85.4022 47.2657 85.3332 47.3913Z" fill="white"/>
</g>
<path d="M62.9666 56.0363C63.5817 52.2633 65.4652 48.7085 68.2419 46.0809C70.2716 44.1602 72.7374 42.7414 74.7336 40.7859C77.0317 38.5349 78.6451 35.5941 79.309 32.4464C81.6139 37.7955 81.5413 44.119 79.1143 49.4138C77.9999 51.8449 76.4131 54.0773 75.6816 56.6496" fill="#015E95"/>
<path d="M72.7111 43.3812C72.4913 45.1476 72.6002 46.9443 72.6344 48.7187C72.6371 48.8615 72.8599 48.8706 72.8571 48.7269C72.8229 46.9525 72.7141 45.1558 72.9338 43.3895C72.9515 43.2471 72.7286 43.2397 72.7111 43.3812Z" fill="white"/>
<path d="M74.8799 45.9954C76.2862 45.4508 77.6927 44.9062 79.099 44.3616C79.2324 44.3099 79.1261 44.1138 78.9937 44.1651C77.5874 44.7098 76.1809 45.2543 74.7745 45.7989C74.6411 45.8506 74.7474 46.0467 74.8799 45.9954Z" fill="white"/>
<path d="M70.4237 51.9775C71.83 51.4329 73.2365 50.8884 74.6428 50.3437C74.7763 50.2921 74.6699 50.0959 74.5375 50.1473C73.1312 50.6919 71.7247 51.2364 70.3183 51.7811C70.1849 51.8327 70.2912 52.0289 70.4237 51.9775Z" fill="white"/>
<path d="M68.0173 48.0381C68.1842 49.8714 68.5351 51.6801 69.0713 53.4413C69.1128 53.5778 69.3303 53.5278 69.2883 53.3901C68.7582 51.649 68.4051 49.859 68.24 48.0464C68.2272 47.9055 68.0043 47.8954 68.0173 48.0381Z" fill="white"/>
<path d="M67.7339 56.3934C68.9626 53.2315 71.3945 50.7856 73.384 48.1047C74.4683 46.6437 75.3489 45.0688 76.219 43.4748C77.0495 41.9533 77.8782 40.4217 78.5071 38.8033C79.2074 37.0008 79.6081 35.1055 79.5661 33.1668C79.563 33.024 79.3404 33.0148 79.3434 33.1586C79.3815 34.9184 79.0559 36.6442 78.4592 38.2966C77.868 39.9339 77.0522 41.4775 76.2223 43.0037C75.3514 44.6053 74.4865 46.2075 73.4149 47.6866C72.4438 49.027 71.3659 50.285 70.3563 51.5957C69.2303 53.0573 68.1928 54.5982 67.5213 56.3263C67.4692 56.4603 67.6822 56.5265 67.7339 56.3934Z" fill="white"/>
<path d="M51.4071 56.0182C50.792 52.2452 48.9085 48.6904 46.1318 46.0628C44.1021 44.1421 41.6363 42.7233 39.6401 40.7678C37.342 38.5168 35.7285 35.576 35.0646 32.4283C32.7597 37.7774 32.8324 44.1009 35.2594 49.3957C36.3738 51.8268 37.9606 54.0592 38.6921 56.6315" fill="#015E95"/>
<path d="M41.6621 43.3631C41.8818 45.1295 41.773 46.9262 41.7388 48.7005C41.7361 48.8434 41.5133 48.8525 41.5161 48.7088C41.5503 46.9344 41.6591 45.1377 41.4394 43.3713C41.4217 43.229 41.6446 43.2216 41.6621 43.3631Z" fill="white"/>
<path d="M39.493 45.977C38.0867 45.4323 36.6802 44.8878 35.2739 44.3431C35.1404 44.2915 35.2467 44.0954 35.3792 44.1467C36.7855 44.6913 38.192 45.2358 39.5983 45.7805C39.7318 45.8321 39.6255 46.0283 39.493 45.977Z" fill="white"/>
<path d="M43.9509 51.9593C42.5446 51.4147 41.1381 50.8702 39.7318 50.3255C39.5983 50.2739 39.7046 50.0777 39.8371 50.1291C41.2434 50.6737 42.6499 51.2182 44.0562 51.7629C44.1897 51.8145 44.0834 52.0107 43.9509 51.9593Z" fill="white"/>
<path d="M46.3549 48.0196C46.188 49.8529 45.8371 51.6616 45.3009 53.4229C45.2594 53.5593 45.0419 53.5094 45.0839 53.3716C45.614 51.6306 45.9671 49.8405 46.1322 48.0279C46.145 47.887 46.3679 47.8769 46.3549 48.0196Z" fill="white"/>
<path d="M46.6384 56.3751C45.4098 53.2132 42.9779 50.7673 40.9884 48.0864C39.9041 46.6253 39.0235 45.0505 38.1534 43.4565C37.3229 41.935 36.4942 40.4034 35.8653 38.785C35.1649 36.9825 34.7643 35.0872 34.8062 33.1485C34.8094 33.0057 35.032 32.9965 35.029 33.1403C34.9909 34.9001 35.3165 36.6259 35.9132 38.2783C36.5044 39.9156 37.3202 41.4592 38.1501 42.9854C39.021 44.587 39.8859 46.1892 40.9575 47.6683C41.9286 49.0087 43.0065 50.2667 44.0161 51.5774C45.1421 53.039 46.1796 54.5799 46.8511 56.308C46.9031 56.442 46.6902 56.5082 46.6384 56.3751Z" fill="white"/>
<path d="M61.7505 46.7659C61.4154 42.9578 59.7992 39.2737 57.2239 36.4485C55.3414 34.3833 52.9869 32.7865 51.1404 30.6891C49.0146 28.2747 47.6225 25.2229 47.1926 22.0349C44.4994 27.1993 44.1054 33.511 46.1352 38.9703C47.0673 41.477 48.4851 43.8204 49.0249 46.4397" fill="#015E95"/>
<path d="M52.9646 33.4266C53.0534 35.2043 52.8123 36.9881 52.6473 38.7551C52.6341 38.8974 52.4112 38.89 52.4246 38.7469C52.5896 36.9799 52.8307 35.1961 52.7418 33.4183C52.7347 33.2751 52.9575 33.2842 52.9646 33.4266Z" fill="white"/>
<path d="M50.6084 35.8737C49.2461 35.2268 47.8836 34.58 46.5213 33.9331C46.392 33.8717 46.5125 33.684 46.6408 33.7449C48.0031 34.3918 49.3656 35.0386 50.7279 35.6855C50.8572 35.7469 50.7367 35.9346 50.6084 35.8737Z" fill="white"/>
<path d="M54.6121 42.1683C53.2497 41.5214 51.8873 40.8746 50.5249 40.2277C50.3957 40.1664 50.5161 39.9786 50.6445 40.0396C52.0068 40.6865 53.3693 41.3332 54.7316 41.9801C54.8609 42.0415 54.7404 42.2292 54.6121 42.1683Z" fill="white"/>
<path d="M57.3013 38.4166C56.9996 40.2326 56.5162 42.0105 55.8516 43.7274C55.8001 43.8604 55.5869 43.7946 55.6389 43.6602C56.296 41.9631 56.7802 40.2039 57.0786 38.4084C57.1017 38.2689 57.3247 38.2752 57.3013 38.4166Z" fill="white"/>
<path d="M56.9671 46.7707C55.975 43.5267 53.7301 40.9081 51.9438 38.0878C50.9703 36.5507 50.2082 34.9152 49.4581 33.2613C48.742 31.6827 48.0286 30.0942 47.5208 28.4338C46.9553 26.5846 46.6955 24.6649 46.8804 22.7345C46.894 22.5924 47.1167 22.5996 47.1031 22.7428C46.9353 24.495 47.1327 26.2401 47.6059 27.9321C48.0747 29.6084 48.7745 31.208 49.4895 32.7913C50.2399 34.4528 50.9843 36.1144 51.9439 37.6685C52.8134 39.0769 53.7956 40.411 54.7058 41.7926C55.7209 43.3333 56.6419 44.9465 57.1841 46.7194C57.2261 46.8569 57.0089 46.9072 56.9671 46.7707Z" fill="white"/>
</g>
<path d="M77.1962 46.5646C77.1962 46.5646 100.207 33.6091 77.9241 12.4764C73.8684 8.63011 68.7417 6.07457 63.2158 5.23363C47.4536 2.83477 37.4456 5.86623 31.4297 13.1843C25.4139 20.5023 17.966 36.6184 34.3253 47.0326" stroke="#606060" stroke-width="2" stroke-miterlimit="10" stroke-dasharray="4 3"/>
<path d="M87.2238 16.6998C87.2238 20.0419 84.5146 22.7511 81.1725 22.7511C77.8304 22.7511 75.1212 20.0419 75.1212 16.6998C75.1212 13.3577 77.8304 10.6485 81.1725 10.6485C84.5146 10.6485 87.2238 13.3577 87.2238 16.6998Z" fill="#015E95"/>
<path d="M80.9707 20.5028C81.6873 20.3125 82.3068 19.8964 82.638 19.2824C82.6531 19.2542 82.7953 18.9944 82.791 18.9659C83.1758 18.2249 83.1441 16.9952 83.1156 16.5846C83.0905 15.4443 82.7825 14.628 82.5 14.194C82.5026 14.1501 82.3314 13.9041 82.2967 13.8666C81.6362 13.154 81.1554 12.9632 80.4149 12.8747C80.0717 12.8337 79.7392 13.0165 79.7553 13.2345L79.9141 15.3715C79.9301 15.5863 80.2787 15.7165 80.6085 15.6289C80.9136 15.548 81.2752 15.4231 81.5858 15.239C81.7238 15.5986 81.8388 16.0713 81.8507 16.6644L81.8515 16.6798C81.8815 17.1058 81.8628 17.5936 81.8006 17.9976C81.4676 17.8591 81.0919 17.7862 80.7771 17.7486C80.4339 17.7076 80.1014 17.8904 80.1175 18.1083L80.2763 20.2454C80.2923 20.4601 80.6409 20.5904 80.9707 20.5028Z" fill="#C8E9F0"/>
<path d="M59.132 4.36837C59.132 6.78103 57.1763 8.73674 54.7637 8.73674C52.351 8.73674 50.3953 6.78103 50.3953 4.36837C50.3953 1.95571 52.351 0 54.7637 0C57.1763 0 59.132 1.95571 59.132 4.36837Z" fill="#015E95"/>
<path d="M56.5068 3.58159C56.5068 2.57072 55.7263 1.75131 54.7635 1.75131C53.8007 1.75131 53.0202 2.57072 53.0202 3.58159C53.0202 3.79917 53.0582 4.00689 53.1245 4.20044L53.1225 4.20031L53.1314 4.2199C53.1665 4.31871 53.209 4.41345 53.2592 4.50339L54.8246 6.98517L56.3411 4.3606H56.3392C56.4456 4.12393 56.5068 3.86065 56.5068 3.58159ZM54.8148 4.36824C54.352 4.36824 53.9768 3.99296 53.9768 3.53009C53.9768 3.06722 54.352 2.69207 54.8148 2.69207C55.2777 2.69207 55.6529 3.06722 55.6529 3.53009C55.6529 3.99296 55.2777 4.36824 54.8148 4.36824Z" fill="#C8E9F0"/>
<path d="M35.407 15.1006C36.0413 14.309 36.4216 13.3049 36.4216 12.2115C36.4216 9.65752 34.3512 7.58711 31.7973 7.58711C29.2433 7.58711 27.1729 9.65752 27.1729 12.2115C27.1729 14.7655 29.2433 16.8359 31.7973 16.8359C32.3835 16.8359 32.9435 16.7257 33.4596 16.5268L33.4577 16.5282L35.7577 17.3984L35.4093 15.0989L35.407 15.1006Z" fill="#015E95"/>
<path d="M30.4268 12.4006C30.4268 12.6088 30.2579 12.7777 30.0497 12.7777C29.8415 12.7777 29.6726 12.6088 29.6726 12.4006C29.6726 12.1924 29.8415 12.0235 30.0497 12.0235C30.2579 12.0235 30.4268 12.1924 30.4268 12.4006Z" fill="#C8E9F0"/>
<path d="M32.0829 12.4006C32.0829 12.6088 31.914 12.7777 31.7058 12.7777C31.4976 12.7777 31.3287 12.6088 31.3287 12.4006C31.3287 12.1924 31.4976 12.0235 31.7058 12.0235C31.914 12.0235 32.0829 12.1924 32.0829 12.4006Z" fill="#C8E9F0"/>
<path d="M33.7389 12.4006C33.7389 12.6088 33.57 12.7777 33.3618 12.7777C33.1536 12.7777 32.9847 12.6088 32.9847 12.4006C32.9847 12.1924 33.1536 12.0235 33.3618 12.0235C33.57 12.0235 33.7389 12.1924 33.7389 12.4006Z" fill="#C8E9F0"/>
<path d="M46.0244 23.2187C45.964 23.0734 45.9081 22.9261 45.8581 22.777C45.8432 22.7459 45.8287 22.7145 45.8126 22.6837L45.8289 22.6886C45.8204 22.6617 45.8129 22.6346 45.8046 22.6077C45.179 23.2115 44.9065 24.4552 45.1864 25.7865C45.3236 26.4388 45.5738 27.0185 45.8892 27.4757C45.8876 27.4279 45.8843 27.3802 45.884 27.3324C45.8794 25.9562 46.386 24.496 46.0244 23.2187Z" fill="white"/>
<path d="M47.8346 26.3558C47.7316 26.9556 47.5455 27.5457 47.4753 28.1518C47.4605 28.2793 47.4521 28.4072 47.4479 28.5354C47.5553 28.541 47.6627 28.5337 47.7692 28.5114C47.7803 28.509 47.791 28.5058 47.8019 28.5031C47.7523 27.9307 47.8187 27.3437 47.8333 26.7653C47.8367 26.6288 47.837 26.4923 47.8346 26.3558Z" fill="white"/>
<path d="M53.6312 31.1089C53.6107 31.0443 53.5876 30.9738 53.562 30.9003C53.5442 30.8503 53.5278 30.7998 53.508 30.7506C53.5063 30.7458 53.5042 30.741 53.5025 30.7362C53.4973 30.7234 53.4908 30.7113 53.4855 30.6987C53.4614 30.7001 53.439 30.7033 53.4139 30.7038C52.7426 30.7179 52.2691 30.336 51.6782 30.0169C51.0705 29.6889 50.2562 28.9342 49.8655 28.4148C49.541 27.9832 49.3548 27.5336 49.2157 27.0695C49.2113 27.0589 49.2065 27.0487 49.2022 27.0381C49.1548 26.9182 49.1245 26.7985 49.1097 26.6845C49.1066 26.6722 49.1037 26.6598 49.1006 26.6475C48.9571 27.6116 48.4849 28.3397 47.8025 28.5029C47.819 28.6939 47.8485 28.8834 47.8971 29.0703C48.1834 30.1706 49.1168 31.0225 50.1752 31.4377C51.2337 31.8529 52.4052 31.8833 53.5375 31.7803C53.615 31.7732 53.6931 31.7647 53.7712 31.7549C53.7408 31.5362 53.6944 31.3201 53.6312 31.1089Z" fill="#0B0042"/>
<path d="M49.1004 26.6476C49.0404 26.4078 48.9852 26.1644 48.9243 25.9177C48.5902 25.8413 48.2367 25.6915 47.9044 25.4985C47.9062 25.5714 47.907 25.6443 47.9046 25.7176C47.8978 25.9323 47.8713 26.1446 47.835 26.3558C47.8374 26.4922 47.8371 26.6288 47.8337 26.7652C47.8191 27.3436 47.7527 27.9307 47.8023 28.503C48.4848 28.3399 48.957 27.6117 49.1004 26.6476Z" fill="#0B0042"/>
<path d="M54.7436 31.4342C54.3547 31.5586 54.1219 31.5975 53.7259 31.4302C53.7259 31.4302 53.6899 31.2949 53.6311 31.109C53.6942 31.3202 53.7405 31.5362 53.7709 31.7549C54.1176 31.7117 54.462 31.6316 54.7436 31.4342Z" fill="#FFC3C5"/>
<path d="M54.7209 30.2411C54.4541 30.3722 54.2398 30.4973 54.0097 30.585L54.7815 31.4088C54.7691 31.4182 54.7555 31.4256 54.7428 31.4344C54.7982 31.4167 54.857 31.3972 54.9197 31.3763C55.3224 31.2426 55.6423 30.9893 55.9913 30.7284C56.2053 30.5684 56.7886 30.045 56.9489 29.8139C57.1463 29.5292 57.5412 28.7799 57.67 28.5631C57.7125 28.4916 57.7498 28.4249 57.7844 28.3607C57.7532 28.1876 57.7373 28.0107 57.7414 27.8234C56.8971 28.8467 55.6425 29.7888 54.7209 30.2411Z" fill="#FF9798"/>
<path d="M54.0107 30.5851C53.8521 30.6455 53.6844 30.6867 53.4878 30.6987C53.4927 30.7112 53.4976 30.7237 53.5024 30.7363C53.5042 30.741 53.5061 30.7461 53.5079 30.7508C53.5269 30.8014 53.5448 30.8514 53.562 30.9005C53.5867 30.9696 53.6101 31.0389 53.6311 31.1092C53.69 31.2951 53.7261 31.4304 53.7261 31.4304C54.1221 31.5976 54.3549 31.5588 54.7438 31.4344C54.7566 31.4256 54.7701 31.4182 54.7825 31.4088L54.0107 30.5851Z" fill="#FF9798"/>
<path d="M45.8897 27.4758C45.9448 29.112 46.8442 30.7512 48.322 31.4511C47.7239 30.6089 47.4154 29.5672 47.4485 28.5354C46.888 28.5061 46.3263 28.1087 45.8897 27.4758Z" fill="#0B0042"/>
<path d="M45.8134 22.6833C45.8296 22.7141 45.8441 22.7456 45.859 22.7767C45.8491 22.7473 45.8393 22.7179 45.8298 22.6883L45.8134 22.6833Z" fill="#0B0042"/>
<path d="M47.8345 26.3555C47.8289 26.0417 47.8065 25.7284 47.77 25.4167C47.3126 25.1303 46.9079 24.7696 46.6711 24.4209C46.4154 24.0442 46.1992 23.6398 46.0241 23.2184C46.3857 24.4958 45.879 25.956 45.8836 27.3322C45.8839 27.38 45.8873 27.4277 45.889 27.4755C46.3256 28.1083 46.8873 28.5057 47.4478 28.5351C47.4519 28.4069 47.4604 28.279 47.4751 28.1515C47.5453 27.5454 47.7315 26.9553 47.8345 26.3555Z" fill="#0B0042"/>
<path d="M47.8348 26.3557C47.8711 26.1445 47.8975 25.9322 47.9043 25.7175C47.9067 25.6442 47.9059 25.5714 47.9041 25.4985C47.8589 25.4722 47.8146 25.4444 47.7703 25.4167C47.8068 25.7284 47.8292 26.0418 47.8348 26.3557Z" fill="#0B0042"/>
<path d="M64.4177 21.5554C64.0364 20.651 63.2901 19.634 62.6063 18.9299C61.1192 17.3985 60.0667 15.4351 58.3457 14.1724C56.1258 12.5436 51.9054 12.5973 49.941 14.6428C49.956 14.6396 49.9712 14.6368 49.9863 14.6337C50.5772 14.3783 51.2022 14.2082 51.8446 14.1499C52.4116 14.0984 52.9896 14.1409 53.5455 14.2708C54.4023 14.0473 55.3216 14.061 56.1683 14.3217C56.8803 14.5408 57.5362 14.927 58.1002 15.4137C58.436 15.7035 58.7399 16.0284 59.0298 16.3641C60.7314 18.335 62.1422 20.6125 62.8337 23.1069C63.7442 23.8828 64.1762 25.2307 63.6763 26.6467C65.1861 25.3086 65.1656 23.329 64.4177 21.5554Z" fill="#0B0042"/>
<path d="M54.7959 28.8369L57.8258 26.4928C57.8398 26.3593 57.8536 26.2226 57.8658 26.0808C56.9545 27.0312 55.9335 27.8812 54.8328 28.5978C54.8477 28.6701 54.8339 28.7526 54.7959 28.8369Z" fill="white"/>
<path d="M48.0162 22.8933C47.9847 22.8597 47.9527 22.827 47.9205 22.7958C47.9282 22.84 47.9371 22.8842 47.9458 22.9287C47.9689 22.9164 47.9927 22.905 48.0162 22.8933Z" fill="white"/>
<path d="M49.0363 24.9768C48.8834 24.2497 48.5898 23.6132 48.2222 23.1357C48.1956 23.148 48.1687 23.1595 48.1425 23.1724C48.0994 23.1937 48.0566 23.2168 48.0143 23.2407C48.073 23.4847 48.1415 23.72 48.2103 23.9214C48.3225 24.2494 48.5089 24.6 48.7209 24.9394L49.0994 25.3435C49.0829 25.2222 49.0622 25.1 49.0363 24.9768Z" fill="white"/>
<path d="M49.1008 26.6474C49.1039 26.6598 49.1068 26.6721 49.1099 26.6844C49.1073 26.6639 49.1056 26.644 49.1039 26.624C49.1028 26.6318 49.1019 26.6396 49.1008 26.6474Z" fill="white"/>
<path d="M49.1218 25.5324C49.2315 25.6835 49.3407 25.8274 49.4445 25.9597C49.5399 25.9458 49.6428 25.9721 49.744 26.0314L49.0997 25.3438C49.1083 25.4071 49.1156 25.4699 49.1218 25.5324Z" fill="white"/>
<path d="M56.3008 23.4493C56.1496 22.7305 56.1989 22.0291 56.4039 21.4343C56.0705 21.537 55.7383 21.6451 55.4076 21.7572C54.6589 22.0111 53.5303 21.9646 52.5004 21.7126C52.4481 21.7443 52.3963 21.7765 52.3457 21.8097C52.2125 21.8967 52.0972 21.7368 52.1418 21.6151C51.5002 21.4231 50.9222 21.1513 50.5349 20.8236C50.1388 20.4884 49.6534 19.9963 49.203 20.2539C49.0773 20.3258 48.9885 20.4468 48.907 20.5664C48.4698 21.208 48.1305 21.9158 47.9003 22.6572C47.9072 22.7031 47.9139 22.7491 47.922 22.7956C47.9543 22.8268 47.9862 22.8595 48.0177 22.893C48.5088 22.6466 49.0753 22.5013 49.6154 22.4396C49.8102 22.4174 49.8746 22.7176 49.6785 22.7399C49.1832 22.7965 48.6777 22.9246 48.2231 23.1358C48.5906 23.6133 48.8842 24.2496 49.0371 24.9768C49.063 25.1 49.0837 25.2222 49.1003 25.3434L49.7447 26.0312C49.8801 26.1106 50.0115 26.2485 50.1158 26.4273C50.1538 26.4924 50.1886 26.5621 50.2182 26.6371C50.4057 27.1119 50.3302 27.5865 50.0498 27.6972C49.7759 27.8054 49.4079 27.5254 49.2163 27.0694C49.3553 27.5335 49.5415 27.9831 49.8661 28.4147C50.2568 28.9342 51.0711 29.6888 51.6788 30.0169C52.2697 30.3359 52.7432 30.7179 53.4145 30.7037C53.4396 30.7032 53.462 30.7 53.4861 30.6986C53.4036 30.5007 53.3052 30.3096 53.1918 30.1272C53.1835 30.1174 53.1752 30.1062 53.1668 30.0976L53.1704 30.0947C53.1315 30.0335 53.0931 29.9721 53.0507 29.913L53.2726 29.7964L54.0688 29.3777C53.866 29.4174 53.6896 29.3775 53.6127 29.2539C53.4924 29.0606 53.6608 28.7384 53.9888 28.5342C54.2011 28.4021 54.4271 28.3531 54.5935 28.3864C55.0965 28.063 55.5813 27.7126 56.0454 27.3349C56.6475 26.8448 57.2391 26.3122 57.7832 25.7387C57.0806 25.2895 56.5146 24.4658 56.3008 23.4493ZM50.7546 25.9489C50.9321 25.0987 50.8629 24.5783 50.8145 23.8821C51.282 24.5451 51.6569 25.3142 51.9109 26.1308C51.5931 26.2156 51.2591 26.2337 50.9252 26.1843C50.8822 26.178 50.8355 26.1681 50.8028 26.1275C50.7659 26.0816 50.7417 26.0105 50.7546 25.9489ZM49.4935 24.6898C49.3226 24.7257 49.147 24.5785 49.1012 24.3609C49.0555 24.1433 49.1569 23.9376 49.3277 23.9017C49.4986 23.8658 49.6743 24.0131 49.7201 24.2307C49.7659 24.4484 49.6643 24.6539 49.4935 24.6898ZM52.8849 28.4409C52.586 28.5485 52.3185 28.5652 52.083 28.5268C51.2641 28.3936 50.8349 27.5905 50.8349 27.5905L51.1173 27.4961L54.432 26.3887C54.432 26.3887 53.8738 28.0853 52.8849 28.4409ZM53.7671 23.3859C53.5963 23.4218 53.4206 23.2744 53.3749 23.0568C53.3291 22.8392 53.4306 22.6336 53.6014 22.5977C53.7722 22.5618 53.948 22.709 53.9937 22.9266C54.0395 23.1443 53.938 23.3499 53.7671 23.3859ZM55.5933 25.6902C55.0938 25.7953 54.6037 25.4756 54.4986 24.9761C54.3936 24.4766 54.7134 23.9866 55.2129 23.8815C55.7124 23.7765 56.2024 24.0962 56.3075 24.5957C56.4125 25.0952 56.0928 25.5852 55.5933 25.6902Z" fill="white"/>
<path d="M49.1402 26.2532C49.1837 26.1205 49.2615 26.0213 49.371 25.978C49.3781 25.9753 49.3855 25.9738 49.3927 25.9716C49.3129 25.9723 49.2307 25.9674 49.1462 25.9565C49.1474 26.0569 49.1453 26.156 49.1402 26.2532Z" fill="white"/>
<path d="M49.1404 26.2532C49.1455 26.1561 49.1476 26.057 49.1464 25.9566C49.0738 25.9473 49 25.9349 48.9249 25.9177C48.9858 26.1644 49.0411 26.4078 49.1011 26.6476C49.1022 26.6398 49.1031 26.6318 49.1043 26.624C49.093 26.4861 49.1056 26.3591 49.1404 26.2532Z" fill="white"/>
<path d="M48.7216 24.9394C48.8492 25.1437 48.9855 25.3437 49.1223 25.5322C49.1161 25.4697 49.1088 25.4068 49.1001 25.3435L48.7216 24.9394Z" fill="white"/>
<path d="M54.1103 29.3673C54.0962 29.3708 54.0819 29.3753 54.068 29.378L53.2717 29.7966L53.3908 29.9238L54.1103 29.3673Z" fill="white"/>
<path d="M53.2713 29.7965L53.0496 29.9131C53.092 29.9722 53.1303 30.0338 53.1692 30.0949L53.3905 29.9238L53.2713 29.7965Z" fill="white"/>
<path d="M53.1915 30.1275C53.3049 30.3099 53.4032 30.5008 53.4858 30.6987C53.4865 30.6987 53.4874 30.6987 53.4881 30.6986C53.4007 30.4728 53.2974 30.2526 53.1915 30.1275Z" fill="white"/>
<path d="M54.6029 29.0964L57.7435 27.4452C57.7551 27.1342 57.7904 26.824 57.8253 26.4929L54.7954 28.8369C54.7558 28.9248 54.6901 29.0145 54.6029 29.0964Z" fill="white"/>
<path d="M53.1665 30.0976C53.1749 30.1063 53.1832 30.1177 53.1916 30.1276C53.1847 30.1165 53.1771 30.1058 53.1701 30.0948L53.1665 30.0976Z" fill="white"/>
<path d="M54.4237 29.2345C54.3196 29.2993 54.2126 29.342 54.1103 29.3672L53.3909 29.9238L54.0105 30.5851C54.2406 30.4974 54.4548 30.3722 54.7216 30.2412C55.6432 29.7888 56.898 28.8468 57.7423 27.8235C57.7424 27.8192 57.7422 27.815 57.7423 27.8107C57.738 27.6878 57.7392 27.5665 57.7436 27.4453L54.603 29.0965C54.5505 29.146 54.4907 29.1928 54.4237 29.2345Z" fill="white"/>
<path d="M53.1693 30.0951C53.1762 30.106 53.1837 30.1166 53.1906 30.1277C53.2965 30.2528 53.3998 30.4729 53.4872 30.6988C53.6838 30.6868 53.8516 30.6456 54.0101 30.5852L53.3905 29.924L53.1693 30.0951Z" fill="white"/>
<path d="M48.8012 19.0428C48.778 19.1031 48.754 19.1632 48.7295 19.2232L49.0064 19.2182C48.9383 19.159 48.8699 19.1004 48.8012 19.0428Z" fill="#FF9798"/>
<path d="M54.343 19.1223L54.4718 19.12C54.4139 19.0716 54.3557 19.0238 54.2995 18.9734C54.3108 19.024 54.3258 19.0735 54.343 19.1223Z" fill="#FF9798"/>
<path d="M55.9448 20.0579C55.416 19.8094 54.9191 19.4946 54.471 19.1199L54.3421 19.1221C54.6228 19.9205 55.6587 20.4774 56.3836 20.9186C56.1394 21.1102 54.8347 21.5675 54.525 21.589C53.9031 21.6324 53.3818 21.608 52.8693 21.5076C52.7427 21.571 52.6189 21.6399 52.499 21.7127C53.529 21.9647 54.6576 22.0112 55.4063 21.7573C55.737 21.6452 56.0692 21.5371 56.4026 21.4344C56.4758 21.222 56.5685 21.023 56.6795 20.8419C56.4131 20.471 56.1508 20.2204 55.9448 20.0579Z" fill="#FF9798"/>
<path d="M52.2037 21.537C52.2753 21.4902 52.3492 21.4451 52.424 21.4011C52.1044 21.3107 51.778 21.1901 51.4229 21.0359C50.5037 20.6368 49.7722 19.8839 49.0064 19.2181L48.7295 19.2231C48.3462 20.1634 47.8309 21.0812 47.8514 22.1501C47.8544 22.3065 47.8724 22.4793 47.8991 22.6574C48.1293 21.9159 48.4686 21.2082 48.9057 20.5666C48.9872 20.447 49.0761 20.3259 49.2017 20.2541C49.6521 19.9964 50.1377 20.4885 50.5338 20.8237C50.9211 21.1515 51.4991 21.4232 52.1407 21.6152C52.1516 21.5855 52.1716 21.558 52.2037 21.537Z" fill="#FF9798"/>
<path d="M47.3496 21.8639L47.106 20.711C47.0264 20.5098 47.0002 20.3014 47.0105 20.0909C46.9743 20.468 46.9594 20.8472 46.9655 21.2259C46.9692 21.457 46.9807 21.6878 46.9961 21.9184C46.9967 21.9279 46.9971 21.9341 46.9974 21.9387C46.9979 21.9431 46.9982 21.949 46.9989 21.9579C47.0009 21.9815 47.0027 22.0052 47.0047 22.0288C47.008 22.0705 47.0116 22.1121 47.0152 22.1538C47.0185 22.1911 47.022 22.2284 47.0254 22.2657C47.1344 22.2924 47.2428 22.3316 47.3495 22.384C47.3441 22.339 47.3386 22.2942 47.3366 22.2483C47.3313 22.1241 47.3359 21.9953 47.3496 21.8639Z" fill="#0B0042"/>
<path d="M47.6738 18.2715C47.6042 18.2366 47.533 18.2047 47.4613 18.1742C47.2896 18.5896 47.167 19.0246 47.0917 19.4604C47.0647 19.6169 47.0431 19.7743 47.0252 19.932C47.0808 19.5103 47.2671 19.0852 47.4576 18.6976C47.5272 18.556 47.5993 18.4136 47.6738 18.2715Z" fill="#0B0042"/>
<path d="M46.484 22.247C46.3853 21.1091 46.3962 19.962 46.671 18.8471C46.7423 18.5575 46.8344 18.2756 46.9454 18.0036C46.9235 17.9983 46.9021 17.9924 46.8801 17.9877L46.6809 18.036C46.7445 17.332 47.1936 16.7226 47.6903 16.2197C48.3315 15.5707 49.0938 15.0296 49.9262 14.6599L49.925 14.659C49.9304 14.6533 49.9361 14.6484 49.9415 14.6428C46.6892 15.3324 45.9401 18.0138 45.6251 19.6238C45.4315 20.6135 45.509 21.6421 45.8046 22.6075C45.9912 22.4274 46.2089 22.3036 46.4532 22.2522C46.4634 22.2501 46.4738 22.2489 46.484 22.247Z" fill="#0B0042"/>
<path d="M46.0249 23.2184C45.9824 23.0685 45.9272 22.9212 45.8585 22.7768C45.9085 22.9259 45.9645 23.0731 46.0249 23.2184Z" fill="#0B0042"/>
<path d="M47.3452 23.1411C47.3642 23.1956 47.3833 23.2499 47.4023 23.3046C47.4614 23.2489 47.5243 23.1956 47.5916 23.1467C47.4712 22.9046 47.3821 22.6526 47.3498 22.3842C47.2431 22.3318 47.1347 22.2925 47.0257 22.2659C47.0294 22.307 47.0332 22.3481 47.0369 22.3893C47.0504 22.5356 46.9846 22.6771 46.8277 22.7101C46.6963 22.7378 46.5202 22.6467 46.5068 22.5008C46.4995 22.4223 46.4922 22.3439 46.4853 22.2654C46.4847 22.2594 46.4844 22.2532 46.4839 22.2471C46.4737 22.249 46.4635 22.2501 46.4533 22.2523C46.209 22.3036 45.9912 22.4275 45.8046 22.6076C45.8129 22.6346 45.8204 22.6617 45.8289 22.6886L47.3452 23.1411Z" fill="#0B0042"/>
<path d="M47.6961 23.4564C47.6946 23.4643 47.6924 23.4719 47.6909 23.4798L47.6875 23.4637C47.6578 23.488 47.6277 23.5122 47.5997 23.5382C47.5673 23.568 47.5399 23.6003 47.5143 23.6337C47.5174 23.6432 47.5205 23.6526 47.5237 23.6622L48.5546 24.7626C48.3491 24.3078 48.0102 23.877 47.741 23.4204C47.7257 23.4321 47.711 23.4444 47.6961 23.4564Z" fill="#0B0042"/>
<path d="M48.555 24.7626L47.524 23.6621C47.7224 24.262 47.888 24.8739 47.9044 25.4987C48.2367 25.6917 48.5901 25.8414 48.9242 25.9178C48.84 25.5766 48.7442 25.2294 48.6048 24.8769C48.5897 24.8385 48.5722 24.8006 48.555 24.7626Z" fill="#0B0042"/>
<path d="M47.5063 23.6431L47.5243 23.6622C47.5211 23.6526 47.518 23.6431 47.5148 23.6335C47.5122 23.6369 47.5088 23.6397 47.5063 23.6431Z" fill="#0B0042"/>
<path d="M47.4287 23.769C47.3876 23.8536 47.36 23.9455 47.3412 24.0428C47.3042 24.2341 46.9973 24.2174 47.0348 24.0238C47.0821 23.7794 47.1586 23.558 47.3308 23.3725C47.3527 23.3489 47.378 23.327 47.4019 23.3044C47.383 23.2497 47.3639 23.1954 47.3449 23.1409L45.8286 22.6884C45.8381 22.718 45.8479 22.7474 45.8578 22.7768C45.9264 22.9213 45.9816 23.0686 46.0241 23.2185C46.1991 23.6398 46.4154 24.0443 46.6711 24.421C46.9078 24.7697 47.3125 25.1304 47.77 25.4168C47.7048 24.8589 47.5906 24.3069 47.4287 23.769Z" fill="#0B0042"/>
<path d="M47.5241 23.6622L47.5062 23.6431C47.4766 23.6831 47.451 23.7251 47.4294 23.7693C47.5913 24.3072 47.7054 24.8592 47.7706 25.4171C47.815 25.4447 47.8593 25.4724 47.9045 25.4987C47.8881 24.8739 47.7225 24.262 47.5241 23.6622Z" fill="#0B0042"/>
<path d="M49.9262 14.6597C49.9463 14.6508 49.9667 14.6424 49.9869 14.6336C49.9718 14.6366 49.9565 14.6395 49.9416 14.6426C49.9362 14.6482 49.9304 14.6533 49.925 14.659L49.9262 14.6597Z" fill="#0B0042"/>
<path d="M47.3503 21.864C47.3366 21.9955 47.332 22.1242 47.3374 22.2485C47.3393 22.2944 47.345 22.3392 47.3504 22.3841C47.3921 22.4045 47.4332 22.4272 47.4743 22.4513L47.3503 21.864Z" fill="#0B0042"/>
<path d="M47.9207 22.7958C47.9125 22.7493 47.9059 22.7032 47.899 22.6573C47.8894 22.6879 47.8799 22.7186 47.8708 22.7494C47.8875 22.7647 47.9042 22.7798 47.9207 22.7958Z" fill="#0B0042"/>
<path d="M48.0147 23.2407C47.92 23.2941 47.8282 23.3542 47.7416 23.4203C48.0108 23.8768 48.3497 24.3075 48.5552 24.7623L48.7213 24.9396C48.5093 24.6002 48.3229 24.2495 48.2107 23.9214C48.1419 23.7201 48.0734 23.4847 48.0147 23.2407Z" fill="#0B0042"/>
<path d="M47.4747 22.4513C47.4336 22.4272 47.3923 22.4044 47.3506 22.384C47.3829 22.6524 47.472 22.9046 47.5924 23.1467C47.6009 23.1406 47.6091 23.1345 47.6177 23.1285L47.4747 22.4513Z" fill="#0B0042"/>
<path d="M47.7988 23.0111C47.8355 22.9893 47.8723 22.9673 47.9087 22.9474C47.9209 22.9407 47.9339 22.935 47.9463 22.9285C47.9376 22.884 47.9285 22.8397 47.9208 22.7955C47.9044 22.7795 47.8877 22.7645 47.871 22.7492C47.8452 22.836 47.8215 22.9234 47.7988 23.0111Z" fill="#0B0042"/>
<path d="M49.1455 25.9569C49.23 25.9677 49.3122 25.9726 49.392 25.9718C49.4091 25.9664 49.4265 25.9623 49.4442 25.9597C49.3405 25.8274 49.2313 25.6835 49.1216 25.5324C49.1358 25.6762 49.1439 25.818 49.1455 25.9569Z" fill="#0B0042"/>
<path d="M49.1221 25.5325C48.9853 25.344 48.8491 25.1441 48.7214 24.9398L48.5553 24.7627C48.5725 24.8008 48.5899 24.8387 48.6051 24.877C48.7444 25.2296 48.8403 25.5768 48.9246 25.918C48.9997 25.9352 49.0734 25.9476 49.146 25.9569C49.1444 25.818 49.1364 25.6763 49.1221 25.5325Z" fill="#0B0042"/>
<path d="M48.5729 19.2262L48.729 19.2233C48.7535 19.1632 48.7777 19.1031 48.8009 19.0429C48.4439 18.7445 48.0754 18.4729 47.6736 18.2716C47.5991 18.4137 47.5268 18.5563 47.4572 18.6978C47.2667 19.0855 47.0804 19.5105 47.0248 19.9323C47.0188 19.9852 47.0151 20.0383 47.01 20.0913C46.9998 20.3018 47.026 20.5102 47.1055 20.7113L47.3491 21.8642C47.4449 20.9385 47.9841 19.8751 48.5729 19.2262Z" fill="#0B0042"/>
<path d="M47.6974 23.4561C47.6943 23.4586 47.6913 23.4613 47.6882 23.4638L47.6918 23.4811C47.6934 23.4726 47.6958 23.4645 47.6974 23.4561Z" fill="#0B0042"/>
<path d="M47.8711 22.7495C47.8802 22.7187 47.8896 22.6882 47.8992 22.6576C47.8725 22.4795 47.8545 22.3066 47.8514 22.1502C47.831 21.0812 48.3463 20.1636 48.7296 19.2233L48.5733 19.226C47.9844 19.875 47.4454 20.9383 47.3496 21.8641L47.4736 22.4515C47.6102 22.5315 47.7433 22.6316 47.8711 22.7495Z" fill="#0B0042"/>
<path d="M47.8709 22.7493C47.7431 22.6314 47.6102 22.5314 47.4736 22.4513L47.6166 23.1285C47.6762 23.0865 47.7372 23.048 47.7987 23.0114C47.8214 22.9237 47.8451 22.8362 47.8709 22.7493Z" fill="#0B0042"/>
<path d="M50.1919 15.6545C50.5079 15.5461 50.8359 15.4961 51.1677 15.4883L50.918 15.3219C50.4915 15.418 50.0763 15.5644 49.6863 15.7579L49.6145 15.9274C49.7955 15.8184 49.9866 15.7248 50.1919 15.6545Z" fill="#0B0042"/>
<path d="M50.3253 14.9262L50.1026 14.7775L49.9911 15.0406C50.1013 14.9994 50.2128 14.9613 50.3253 14.9262Z" fill="#0B0042"/>
<path d="M52.9344 15.7687C53.3052 15.8811 53.6979 16.0425 54.1007 16.2407L53.4958 15.4011C52.6667 15.1422 51.7706 15.1302 50.9184 15.3221L51.1681 15.4886C51.76 15.4746 52.364 15.5957 52.9344 15.7687Z" fill="#0B0042"/>
<path d="M50.1022 14.7773L50.3251 14.926C50.9007 14.7465 51.5047 14.6477 52.0992 14.6428C52.4053 14.6402 52.7087 14.6676 53.0068 14.7219L52.8534 14.5089C53.0774 14.4112 53.3093 14.3324 53.5457 14.2708C52.9898 14.1409 52.4117 14.0983 51.8447 14.1498C51.2023 14.2081 50.5775 14.3781 49.9866 14.6336C50.0506 14.6205 50.1137 14.6067 50.1795 14.5952L50.1022 14.7773Z" fill="#0B0042"/>
<path d="M54.3422 19.1223C54.325 19.0735 54.31 19.0242 54.2987 18.9736C54.3549 19.0239 54.4131 19.0716 54.471 19.12L56.1205 19.0904C56.0687 19.0039 56.0178 18.9182 55.9691 18.8343L55.7699 18.5579L51.1682 15.4885C50.8364 15.4963 50.5084 15.5463 50.1924 15.6547C49.9871 15.725 49.7961 15.8186 49.615 15.9275L49.1074 17.1262C49.198 17.8103 49.0359 18.4336 48.8012 19.0428C48.8699 19.1003 48.9383 19.159 49.0064 19.2182L54.3422 19.1223Z" fill="#0B0042"/>
<path d="M54.1006 16.2405C53.6978 16.0423 53.3051 15.8809 52.9344 15.7685C52.3639 15.5955 51.76 15.4744 51.168 15.4884L55.7699 18.5577L54.1006 16.2405Z" fill="#0B0042"/>
<path d="M55.5396 19.7972L56.2999 19.3867C56.239 19.2867 56.1792 19.1877 56.1206 19.09L54.4712 19.1197C54.9193 19.4945 55.4161 19.8092 55.9449 20.0577C55.7035 19.8674 55.5396 19.7972 55.5396 19.7972Z" fill="#0B0042"/>
<path d="M51.4231 21.0361C51.7782 21.1903 52.1045 21.3109 52.4242 21.4013C52.854 21.1483 53.3325 20.9445 53.8155 20.8441C54.0459 20.7962 54.3046 20.7682 54.5393 20.795C54.781 20.8226 54.985 20.9333 55.1711 21.0858C55.3226 21.2098 55.1563 21.4679 55.0035 21.3428C54.8346 21.2044 54.6638 21.1052 54.442 21.0953C54.231 21.086 54.0125 21.1118 53.8074 21.1604C53.4859 21.2367 53.1695 21.3577 52.8696 21.5078C53.3821 21.6082 53.9034 21.6326 54.5253 21.5892C54.835 21.5677 56.1397 21.1104 56.3839 20.9188C55.659 20.4776 54.6231 19.9208 54.3424 19.1225L49.0066 19.2184C49.7724 19.8842 50.5038 20.6371 51.4231 21.0361Z" fill="#0B0042"/>
<path d="M49.358 15.3187C49.5623 15.2145 49.7745 15.1218 49.9918 15.0405L50.1032 14.7774L49.9269 14.6599C49.0945 15.0295 48.3323 15.5706 47.6911 16.2196C47.1943 16.7226 46.7452 17.3319 46.6817 18.036L46.8807 17.9877C46.9028 17.9924 46.9241 17.9983 46.946 18.0035C47.4131 16.8595 48.227 15.8951 49.358 15.3187Z" fill="#0B0042"/>
<path d="M49.6152 15.9273L49.6869 15.7579C49.4903 15.8555 49.2996 15.964 49.1176 16.0845C48.3448 16.5961 47.8037 17.3453 47.4613 18.174C47.5331 18.2045 47.6042 18.2364 47.6739 18.2713C48.1586 17.3469 48.7591 16.4425 49.6152 15.9273Z" fill="#0B0042"/>
<path d="M50.1017 14.7775L50.179 14.5953C50.1132 14.6068 50.0501 14.6207 49.9861 14.6338C49.9659 14.6426 49.9456 14.651 49.9254 14.6599L50.1017 14.7775Z" fill="#0B0042"/>
<path d="M49.6152 15.9274C48.7592 16.4425 48.1588 17.3471 47.6741 18.2715C48.0759 18.4727 48.4444 18.7444 48.8014 19.0427C49.0361 18.4335 49.1981 17.8101 49.1075 17.126L49.6152 15.9274Z" fill="#0B0042"/>
<path d="M61.7117 22.5211L61.069 22.0925C61.1017 22.2019 61.1307 22.3139 61.1548 22.4286C61.5182 24.157 60.726 25.7866 59.3852 26.0686C59.2064 26.1062 59.0269 26.1171 58.8491 26.1052C58.6838 26.4375 58.4685 26.7867 58.1912 27.2098L58.2881 27.1588C58.046 28.1679 58.1905 29.2647 58.6855 30.1767C58.7196 30.2394 58.7556 30.301 58.7928 30.3618C58.8462 30.3473 58.8989 30.3261 58.9487 30.3043C59.8277 29.92 60.6995 29.4898 61.4325 28.8708C62.1655 28.2519 62.9468 27.3471 63.1211 26.4037C63.2339 25.793 63.2385 25.1014 63.1397 24.4884C63.0643 24.0208 62.9595 23.5607 62.8337 23.107C62.5125 22.8332 62.1323 22.6301 61.7117 22.5211Z" fill="#0B0042"/>
<path d="M58.2891 27.1587L58.1922 27.2096C58.1714 27.2413 58.152 27.2715 58.1305 27.3041C58.089 27.6382 58.0228 27.9216 57.7857 28.3606C57.8173 28.5352 57.864 28.706 57.9211 28.8802C57.9215 28.8818 57.9218 28.8831 57.9222 28.8846C57.9226 28.8859 57.923 28.8866 57.9234 28.8879C58.0376 29.2351 58.1905 29.5971 58.3397 30.0319C58.3843 30.1619 58.4426 30.3055 58.5693 30.3585C58.6408 30.3884 58.7179 30.3823 58.7938 30.3617C58.7566 30.3009 58.7206 30.2393 58.6866 30.1766C58.1915 29.2646 58.047 28.1678 58.2891 27.1587Z" fill="#0B0042"/>
<path d="M57.7429 27.8235C57.7387 28.0109 57.7546 28.1877 57.7859 28.3608C58.0229 27.9218 58.0891 27.6383 58.1305 27.3043C58.0157 27.4785 57.8845 27.652 57.7429 27.8235Z" fill="#0B0042"/>
<path d="M58.1003 15.4136C57.5363 14.9269 56.8804 14.5407 56.1684 14.3216C55.3217 14.0609 54.4024 14.0473 53.5456 14.2708C54.5321 14.5011 55.4485 15.0092 56.1056 15.7763C56.3595 16.0728 56.5727 16.4015 56.785 16.7291C57.4464 17.7496 58.1077 18.7702 58.7691 19.7908C59.7733 19.9414 60.6942 20.8392 61.0691 22.0923L61.7118 22.5209C62.1325 22.63 62.5127 22.833 62.8339 23.1068C62.1424 20.6124 60.7316 18.3349 59.03 16.364C58.7401 16.0283 58.4361 15.7034 58.1003 15.4136Z" fill="#0B0042"/>
<path d="M57.866 26.0807C57.8537 26.2225 57.8398 26.3594 57.8259 26.4929L58.2914 26.1328C58.1934 26.626 58.1706 26.954 58.1382 27.238L58.1922 27.2095C58.4695 26.7865 58.6849 26.4373 58.8501 26.1049C58.5753 26.0863 58.3049 26.0115 58.0479 25.8872C57.9876 25.952 57.9273 26.0168 57.866 26.0807Z" fill="#0B0042"/>
<path d="M58.1301 27.3045C58.1516 27.2719 58.171 27.2416 58.1918 27.2099L58.1376 27.2384C58.1351 27.2605 58.1327 27.2829 58.1301 27.3045Z" fill="#0B0042"/>
<path d="M58.138 27.2382C58.1704 26.9541 58.1932 26.6262 58.2912 26.1329L57.8257 26.4931C57.7908 26.8242 57.7556 27.1343 57.744 27.4453L58.138 27.2382Z" fill="#0B0042"/>
<path d="M57.7429 27.4453C57.7384 27.5665 57.7373 27.6878 57.7416 27.8107C57.7415 27.815 57.7416 27.8191 57.7415 27.8234C57.8831 27.6519 58.0144 27.4783 58.1293 27.3041C58.1319 27.2825 58.1344 27.2602 58.1369 27.2382L57.7429 27.4453Z" fill="#0B0042"/>
<path d="M56.68 20.8421C56.7677 20.699 56.8669 20.5672 56.9761 20.4483C56.6228 20.3459 56.2782 20.2145 55.9453 20.0582C56.1513 20.2207 56.4136 20.4712 56.68 20.8421Z" fill="#0B0042"/>
<path d="M56.5789 17.8234C55.8795 16.8665 54.9428 15.9649 53.8183 15.5145C53.7123 15.4721 53.6047 15.435 53.4962 15.4011L54.1009 16.2407C54.9171 16.6422 55.7748 17.1982 56.5789 17.8234Z" fill="#0B0042"/>
<path d="M53.0073 14.7219C53.5011 14.8118 53.9803 14.9757 54.4327 15.2013C55.7053 15.8363 56.6891 16.9464 57.4403 18.1319C57.6188 18.4134 57.7902 18.7046 57.9474 19.0037C57.9657 19.0213 57.9839 19.0387 58.0021 19.0563L58.2579 19.0517C58.3338 19.2116 58.4061 19.3736 58.4757 19.5368C58.5524 19.6183 58.6275 19.6997 58.7001 19.7807C58.7233 19.7834 58.7467 19.7873 58.7698 19.7907C58.1084 18.7702 57.4471 17.7496 56.7857 16.7291C56.5734 16.4014 56.3602 16.0727 56.1063 15.7763C55.4492 15.0091 54.5328 14.5011 53.5463 14.2708C53.3099 14.3325 53.0779 14.4112 52.8539 14.5089L53.0073 14.7219Z" fill="#0B0042"/>
<path d="M58.2571 19.0521L58.0014 19.0566C58.1661 19.2163 58.324 19.3769 58.4748 19.5372C58.4052 19.3739 58.333 19.212 58.2571 19.0521Z" fill="#0B0042"/>
<path d="M56.121 19.0903L56.5569 19.0825L55.7706 18.5579L55.9696 18.8342C56.0183 18.9181 56.0692 19.0037 56.121 19.0903Z" fill="#0B0042"/>
<path d="M54.1009 16.2406L55.7702 18.5578L56.5567 19.0825L57.3602 19.068C57.1835 18.7413 56.9921 18.4225 56.7844 18.1147C56.7186 18.0172 56.6496 17.9201 56.5788 17.8233C55.7747 17.1981 54.917 16.6422 54.1009 16.2406Z" fill="#0B0042"/>
<path d="M58.6995 19.7808C58.6269 19.6998 58.5517 19.6184 58.475 19.5369C58.508 19.6144 58.54 19.6921 58.5713 19.7701C58.6141 19.7723 58.6569 19.7759 58.6995 19.7808Z" fill="#0B0042"/>
<path d="M58.002 19.0567C57.9838 19.0391 57.9656 19.0216 57.9473 19.004C57.9566 19.0218 57.9664 19.0393 57.9756 19.0571L58.002 19.0567Z" fill="#0B0042"/>
<path d="M56.2997 19.3869L55.5393 19.7975C55.5393 19.7975 55.7033 19.8676 55.9447 20.0579C56.2776 20.2143 56.6222 20.3456 56.9755 20.4481C57.1982 20.2055 57.4636 20.0179 57.7631 19.9014C57.7603 19.8948 57.7574 19.8882 57.7546 19.8816L56.5563 19.0824L56.1204 19.0902C56.1789 19.1879 56.2388 19.2869 56.2997 19.3869Z" fill="#0B0042"/>
<path d="M57.7548 19.8815C57.6989 19.7505 57.6422 19.6197 57.5793 19.4913C57.5093 19.3485 57.4355 19.2076 57.3599 19.0678L56.5564 19.0823L57.7548 19.8815Z" fill="#0B0042"/>
<path d="M58.3081 19.7748C58.3961 19.7674 58.4841 19.7657 58.5716 19.7702C58.5402 19.6921 58.5082 19.6143 58.4752 19.5369C58.3244 19.3766 58.1664 19.2162 58.0016 19.0564L57.9751 19.0569C58.0968 19.2917 58.2091 19.5314 58.3081 19.7748Z" fill="#0B0042"/>
<path d="M50.7532 25.9491C50.7403 26.0108 50.7644 26.0819 50.8014 26.1278C50.8341 26.1684 50.8808 26.1783 50.9238 26.1846C51.2577 26.2339 51.5917 26.2158 51.9095 26.1311C51.6554 25.3145 51.2806 24.5454 50.8131 23.8824C50.8615 24.5786 50.9307 25.099 50.7532 25.9491Z" fill="#FF9798"/>
<path d="M49.6779 22.7401C49.874 22.7177 49.8096 22.4175 49.6147 22.4397C49.0747 22.5014 48.5081 22.6468 48.0169 22.8932C48.0876 22.9685 48.1561 23.0498 48.2224 23.1358C48.6771 22.9246 49.1826 22.7966 49.6779 22.7401Z" fill="#0B0042"/>
<path d="M48.0138 23.2408C48.0562 23.2169 48.0989 23.1938 48.142 23.1726C48.1682 23.1596 48.1952 23.1482 48.2218 23.1358C48.1555 23.0498 48.0871 22.9683 48.0164 22.8931C47.9929 22.9048 47.9692 22.9163 47.9461 22.9286C47.9665 23.0331 47.989 23.1376 48.0138 23.2408Z" fill="#0B0042"/>
<path d="M47.5999 23.538C47.628 23.5121 47.6581 23.4879 47.6879 23.4635L47.6408 23.2408C47.6242 23.2095 47.6075 23.1783 47.5918 23.1467C47.5244 23.1956 47.4616 23.2489 47.4024 23.3046C47.4404 23.4138 47.4779 23.5235 47.5145 23.6335C47.5401 23.6002 47.5676 23.5679 47.5999 23.538Z" fill="#0B0042"/>
<path d="M47.6968 23.4564C47.7118 23.4443 47.7266 23.4321 47.7419 23.4205C47.7328 23.405 47.724 23.3895 47.7151 23.374C47.7093 23.4015 47.7022 23.4288 47.6968 23.4564Z" fill="#0B0042"/>
<path d="M47.0348 24.0238C46.9973 24.2174 47.3043 24.2341 47.3413 24.0428C47.3601 23.9456 47.3876 23.8537 47.4288 23.7691C47.3971 23.6642 47.3653 23.5594 47.3301 23.4556L47.5056 23.6428C47.508 23.6395 47.5114 23.6367 47.514 23.6333C47.4774 23.5233 47.4399 23.4138 47.4019 23.3045C47.378 23.3271 47.3527 23.3489 47.3307 23.3725C47.1586 23.558 47.082 23.7793 47.0348 24.0238Z" fill="#0B0042"/>
<path d="M47.4293 23.769C47.4508 23.7248 47.4765 23.6827 47.5061 23.6428L47.3308 23.4555C47.3659 23.5593 47.3976 23.6641 47.4293 23.769Z" fill="#0B0042"/>
<path d="M47.6169 23.1286C47.6083 23.1346 47.6 23.1406 47.5916 23.1467C47.6073 23.1783 47.6239 23.2095 47.6406 23.2407L47.6169 23.1286Z" fill="#0B0042"/>
<path d="M47.9461 22.9287C47.9337 22.9352 47.9207 22.941 47.9085 22.9477C47.872 22.9676 47.8353 22.9896 47.7986 23.0115C47.7674 23.1316 47.7394 23.2524 47.714 23.3738C47.7229 23.3893 47.7317 23.4048 47.7408 23.4203C47.8273 23.3543 47.9192 23.2942 48.0138 23.2408C47.989 23.1376 47.9665 23.0332 47.9461 22.9287Z" fill="#0B0042"/>
<path d="M47.7143 23.3741C47.6889 23.33 47.6642 23.2857 47.6405 23.2409L47.6876 23.4637C47.6905 23.4613 47.6932 23.4589 47.6961 23.4565C47.7015 23.4289 47.7085 23.4016 47.7143 23.3741Z" fill="#0B0042"/>
<path d="M47.7995 23.0114C47.738 23.048 47.677 23.0865 47.6174 23.1285L47.6412 23.2407C47.6649 23.2854 47.6896 23.3297 47.715 23.3739C47.7404 23.2524 47.7684 23.1315 47.7995 23.0114Z" fill="#0B0042"/>
<path d="M49.3266 23.9019C49.1557 23.9378 49.0543 24.1434 49.1001 24.361C49.1458 24.5786 49.3214 24.7258 49.4923 24.6899C49.6631 24.654 49.7646 24.4485 49.7188 24.2309C49.673 24.0132 49.4974 23.866 49.3266 23.9019Z" fill="white"/>
<path d="M53.9922 22.9269C53.9464 22.7092 53.7708 22.562 53.5999 22.5979C53.4291 22.6338 53.3277 22.8394 53.3734 23.057C53.4192 23.2746 53.5948 23.4219 53.7656 23.3859C53.9365 23.35 54.0379 23.1445 53.9922 22.9269Z" fill="white"/>
<path d="M52.8835 28.4409C53.8724 28.0852 54.4306 26.3886 54.4306 26.3886L51.116 27.4962L52.0817 28.5268C52.3171 28.5651 52.5846 28.5484 52.8835 28.4409Z" fill="white"/>
<path d="M50.833 27.5909C50.833 27.5909 51.2622 28.394 52.0811 28.5273L51.1154 27.4965L50.833 27.5909Z" fill="white"/>
<path d="M55.5922 25.6905C56.0917 25.5854 56.4114 25.0954 56.3064 24.5959C56.2013 24.0964 55.7113 23.7767 55.2118 23.8818C54.7123 23.9868 54.3926 24.4768 54.4976 24.9763C54.6027 25.4758 55.0927 25.7955 55.5922 25.6905Z" fill="#FF9798"/>
<path d="M49.202 27.038C49.2063 27.0487 49.211 27.0588 49.2155 27.0693C49.1774 26.942 49.1423 26.8139 49.1095 26.6844C49.1243 26.7984 49.1546 26.9182 49.202 27.038Z" fill="#FF9798"/>
<path d="M49.7435 26.0312L50.1146 26.4273C50.0103 26.2486 49.8789 26.1107 49.7435 26.0312Z" fill="#FF9798"/>
<path d="M50.0488 27.6974C50.3292 27.5867 50.4046 27.1121 50.2172 26.6373C50.1876 26.5623 50.1527 26.4925 50.1147 26.4273L49.7437 26.0314C49.6426 25.9721 49.5396 25.9456 49.4442 25.9595C49.4473 25.9635 49.4506 25.968 49.4537 25.972C49.4337 25.9731 49.4123 25.9714 49.3918 25.9717C49.3846 25.9739 49.3772 25.9754 49.3701 25.9781C49.2606 26.0214 49.1828 26.1206 49.1393 26.2533C49.1325 26.3801 49.1204 26.5038 49.1032 26.6241C49.1049 26.6441 49.1066 26.6641 49.1093 26.6846C49.142 26.8141 49.1772 26.9423 49.2153 27.0696C49.4069 27.5256 49.7748 27.8056 50.0488 27.6974Z" fill="#FF9798"/>
<path d="M49.1394 26.2532C49.1046 26.3591 49.092 26.4862 49.1033 26.6241C49.1204 26.5038 49.1325 26.38 49.1394 26.2532Z" fill="#FF9798"/>
<path d="M49.3913 25.9715C49.4118 25.9712 49.4333 25.9729 49.4533 25.9718C49.4502 25.9678 49.4468 25.9634 49.4437 25.9593C49.426 25.9619 49.4085 25.9661 49.3913 25.9715Z" fill="#FF9798"/>
<path d="M52.3447 21.8098C52.3954 21.7766 52.4472 21.7444 52.4994 21.7126C52.3782 21.683 52.2586 21.6504 52.1409 21.6152C52.0962 21.7369 52.2116 21.8968 52.3447 21.8098Z" fill="#0B0042"/>
<path d="M52.4239 21.4013C52.3491 21.4453 52.2753 21.4904 52.2037 21.5372C52.1716 21.5582 52.1514 21.5856 52.1406 21.6153C52.2583 21.6505 52.3779 21.6831 52.4991 21.7128C52.619 21.64 52.7426 21.5712 52.8693 21.5078C52.7209 21.4787 52.573 21.4434 52.4239 21.4013Z" fill="#0B0042"/>
<path d="M54.4415 21.0952C54.6633 21.1051 54.8341 21.2043 55.0029 21.3427C55.1558 21.4678 55.3221 21.2097 55.1706 21.0857C54.9844 20.9332 54.7805 20.8225 54.5388 20.7949C54.3041 20.7681 54.0454 20.7961 53.815 20.844C53.332 20.9445 52.8535 21.1482 52.4237 21.4012C52.5728 21.4434 52.7207 21.4788 52.8691 21.5079C53.169 21.3577 53.4854 21.2366 53.8068 21.1603C54.012 21.1117 54.2304 21.0859 54.4415 21.0952Z" fill="#0B0042"/>
<path d="M56.4033 21.4345C56.1982 22.0293 56.149 22.7307 56.3001 23.4495C56.5139 24.466 57.0799 25.2897 57.7826 25.7389C57.8203 25.6991 57.8588 25.6602 57.896 25.62C57.9087 25.3348 57.9094 25.0272 57.8881 24.6884C57.4776 24.3097 57.1583 23.7588 57.0212 23.1069C56.9031 22.5452 56.9397 21.998 57.0943 21.5294C57.0485 21.4387 57.002 21.3528 56.9549 21.2707C56.7706 21.3236 56.5867 21.378 56.4033 21.4345Z" fill="white"/>
<path d="M56.68 20.8421C56.569 21.0232 56.4763 21.2222 56.4031 21.4346C56.5865 21.3782 56.7703 21.3238 56.9546 21.2708C56.8641 21.1128 56.7719 20.97 56.68 20.8421Z" fill="white"/>
<path d="M60.9036 22.2902C61.1943 23.6726 60.5607 24.976 59.4883 25.2015C59.3846 25.2233 59.2806 25.2312 59.177 25.2319C59.1003 25.5375 58.9926 25.8158 58.8487 26.105C59.0265 26.117 59.206 26.106 59.3848 26.0684C60.7256 25.7865 61.518 24.1568 61.1545 22.4284C61.1304 22.3137 61.1014 22.2017 61.0687 22.0923L60.7977 21.9116C60.8391 22.0339 60.8761 22.1592 60.9036 22.2902Z" fill="white"/>
<path d="M59.0481 20.189C59.8012 20.3264 60.4864 20.9887 60.7988 21.9116L61.0699 22.0923C60.6949 20.8392 59.7739 19.9416 58.7697 19.7909C58.8312 19.8858 58.8926 19.9805 58.954 20.0754C58.9858 20.1134 59.0173 20.1513 59.0481 20.189Z" fill="white"/>
<path d="M58.6848 25.1616C58.479 25.4091 58.2661 25.6511 58.0464 25.8873C58.3034 26.0115 58.5739 26.0865 58.8487 26.1051C58.9926 25.8159 59.1001 25.5377 59.1769 25.232C59.0107 25.2331 58.8455 25.2105 58.6848 25.1616Z" fill="white"/>
<path d="M57.0936 21.5293C57.1321 21.4122 57.1769 21.2996 57.23 21.1935C57.1379 21.2189 57.046 21.2443 56.9542 21.2706C57.0013 21.3527 57.0478 21.4386 57.0936 21.5293Z" fill="white"/>
<path d="M58.3974 25.0438C58.2171 24.9539 58.0458 24.8343 57.8877 24.6884C57.909 25.0273 57.9083 25.3347 57.8956 25.6199C58.0693 25.4327 58.2358 25.2398 58.3974 25.0438Z" fill="white"/>
<path d="M59.0487 20.189C59.018 20.1513 58.9866 20.1133 58.9548 20.0753C58.9785 20.112 59.0022 20.1484 59.026 20.1851C59.0335 20.1864 59.0411 20.1876 59.0487 20.189Z" fill="white"/>
<path d="M57.6592 20.6101C57.4286 20.5677 57.2001 20.5138 56.9749 20.4485C56.8657 20.5674 56.7665 20.6992 56.6787 20.8422C56.7706 20.9702 56.8629 21.1128 56.9534 21.2708C57.0452 21.2445 57.1372 21.2192 57.2293 21.1938C57.3423 20.968 57.4878 20.7711 57.6592 20.6101Z" fill="white"/>
<path d="M58.9543 20.0755C58.8929 19.9806 58.8315 19.8859 58.77 19.7911C58.7469 19.7876 58.7235 19.7836 58.7003 19.7809C58.7885 19.8796 58.8727 19.9778 58.9543 20.0755Z" fill="white"/>
<path d="M58.7239 20.1656C58.8249 20.1633 58.9257 20.1685 59.0251 20.1852C59.0014 20.1485 58.9776 20.112 58.9539 20.0753C58.8723 19.9776 58.7881 19.8795 58.6999 19.7808C58.6573 19.7759 58.6145 19.7724 58.5718 19.7701C58.6245 19.9012 58.6757 20.0328 58.7239 20.1656Z" fill="white"/>
<path d="M57.9236 20.2752C57.9194 20.2635 57.9155 20.2512 57.9104 20.2398C57.8594 20.1278 57.8115 20.0146 57.7633 19.9016C57.4639 20.0181 57.1984 20.2057 56.9757 20.4483C57.201 20.5136 57.4295 20.5675 57.6601 20.6099C57.762 20.5142 57.8732 20.4321 57.9931 20.3651C57.9622 20.3422 57.9373 20.3126 57.9236 20.2752Z" fill="white"/>
<path d="M58.4254 20.1984C58.429 20.1976 58.4322 20.1962 58.4358 20.1954C58.5317 20.1753 58.6277 20.1677 58.7234 20.1656C58.6752 20.0328 58.624 19.9012 58.5713 19.7701C58.4838 19.7657 58.3958 19.7674 58.3079 19.7748C58.3418 19.8583 58.3744 19.9422 58.405 20.0266C58.4257 20.0836 58.433 20.1429 58.4254 20.1984Z" fill="white"/>
<path d="M46.9977 21.9395C46.9998 21.972 46.9951 21.9075 46.9977 21.9395V21.9395Z" fill="white"/>
<path d="M47.0048 22.0289C47.0028 22.0052 47.0011 21.9816 46.9992 21.9579C46.9985 21.949 46.998 21.9432 46.9976 21.9388C46.9995 21.9689 46.9951 21.9091 46.9976 21.9388C46.9972 21.9342 46.9968 21.9281 46.9962 21.9186C46.9808 21.688 46.9693 21.4571 46.9656 21.226C46.9595 20.8473 46.9745 20.4682 47.0106 20.0911C47.0132 20.0382 47.0184 19.9851 47.0254 19.932C47.0433 19.7743 47.0649 19.6169 47.0919 19.4604C47.1672 19.0246 47.2899 18.5896 47.4615 18.1742C47.2959 18.1039 47.1241 18.0462 46.9452 18.0037C46.8342 18.2757 46.7423 18.5576 46.671 18.8472C46.3962 19.9621 46.3852 21.1092 46.4839 22.2471C46.6635 22.214 46.8454 22.2217 47.0256 22.2657C47.0222 22.2284 47.0187 22.1911 47.0153 22.1538C47.0117 22.1122 47.0082 22.0706 47.0048 22.0289Z" fill="white"/>
<path d="M46.4848 22.2655C46.4917 22.344 46.499 22.4224 46.5063 22.5008C46.5198 22.6468 46.6958 22.7379 46.8272 22.7102C46.9842 22.6772 47.0501 22.5357 47.0366 22.3893C47.0328 22.3482 47.029 22.3071 47.0252 22.266C46.845 22.2219 46.6631 22.2141 46.4834 22.2472C46.484 22.2533 46.4843 22.2595 46.4848 22.2655Z" fill="white"/>
<path d="M47.0104 20.0909C47.0156 20.038 47.0191 19.9849 47.0251 19.932C47.0181 19.9851 47.013 20.038 47.0104 20.0909Z" fill="white"/>
<path d="M49.6872 15.758C50.0772 15.5644 50.4924 15.418 50.9189 15.3219L50.3254 14.926C50.2128 14.9612 50.1012 14.9993 49.9911 15.0405L49.6872 15.758Z" fill="white"/>
<path d="M53.4969 15.401L53.0077 14.7219C52.7096 14.6677 52.4062 14.6403 52.1001 14.6429C51.5056 14.6478 50.9016 14.7466 50.326 14.9261L50.9196 15.3219C51.7717 15.13 52.6678 15.142 53.4969 15.401Z" fill="white"/>
<path d="M49.1169 16.0848C49.2989 15.9643 49.4896 15.8558 49.6863 15.7582L49.9901 15.0408C49.7728 15.1221 49.5608 15.2148 49.3565 15.3189C48.2255 15.8953 47.4115 16.8599 46.9444 18.0039C47.1233 18.0465 47.2951 18.1042 47.4607 18.1745C47.8031 17.3457 48.3441 16.5964 49.1169 16.0848Z" fill="white"/>
<path d="M53.8182 15.5144C54.9427 15.9648 55.8794 16.8664 56.5788 17.8233C57.0613 18.1984 57.5241 18.5979 57.9469 19.0038C57.7897 18.7048 57.6183 18.4135 57.4399 18.132C56.6886 16.9465 55.7048 15.8364 54.4322 15.2015C53.9799 14.9758 53.5007 14.8119 53.007 14.722L53.4961 15.401C53.6046 15.4349 53.7122 15.472 53.8182 15.5144Z" fill="white"/>
<path d="M56.7841 18.1145C56.9919 18.4223 57.1831 18.7411 57.3598 19.0678L57.975 19.0568C57.9657 19.039 57.9559 19.0215 57.9466 19.0037C57.5238 18.5977 57.0609 18.1981 56.5784 17.8231C56.6492 17.9199 56.7183 18.017 56.7841 18.1145Z" fill="white"/>
<path d="M57.7792 19.8974L57.7556 19.8817C57.7586 19.8888 57.7616 19.8958 57.7646 19.9029C57.7694 19.9011 57.7744 19.8992 57.7792 19.8974Z" fill="white"/>
<path d="M57.7554 19.8818L57.7772 19.8965C57.8715 19.8606 57.9689 19.8308 58.0697 19.8096C58.1492 19.7928 58.229 19.7816 58.3086 19.7749C58.2096 19.5315 58.0973 19.292 57.9756 19.0571L57.3606 19.0681C57.4362 19.2079 57.51 19.3488 57.5799 19.4916C57.6428 19.62 57.6995 19.7508 57.7554 19.8818Z" fill="white"/>
<path d="M57.9102 20.2396C57.9154 20.251 57.9194 20.2632 57.9236 20.2749C57.9373 20.3124 57.9621 20.342 57.993 20.3648C58.0862 20.3126 58.1844 20.2694 58.2875 20.2368L57.7767 19.8962C57.7723 19.8978 57.7676 19.8997 57.7632 19.9014C57.8114 20.0144 57.8592 20.1276 57.9102 20.2396Z" fill="white"/>
<path d="M57.7774 19.8962L58.2881 20.2368C58.3335 20.2225 58.379 20.2087 58.4262 20.1984C58.4338 20.1429 58.4265 20.0835 58.4058 20.0264C58.3752 19.9421 58.3427 19.8582 58.3088 19.7747C58.2291 19.7814 58.1494 19.7926 58.0698 19.8094C57.969 19.8306 57.8717 19.8602 57.7774 19.8962Z" fill="white"/>
<path d="M57.8873 24.6882C57.8615 24.2761 57.8034 23.8179 57.6936 23.2956C57.5419 22.5743 57.328 21.9942 57.0934 21.5293C56.9389 21.9979 56.9022 22.545 57.0203 23.1067C57.1574 23.7586 57.4768 24.3095 57.8873 24.6882Z" fill="#059E9E"/>
<path d="M58.9291 20.7888C59.2171 21.7503 59.3743 22.7475 59.3468 23.7492C59.3302 24.3585 59.2802 24.8206 59.1769 25.2319C59.2805 25.2312 59.3845 25.2233 59.4882 25.2015C60.5606 24.976 61.1942 23.6726 60.9035 22.2902C60.876 22.1592 60.8391 22.0339 60.7976 21.9116L59.0746 20.7623C59.0262 20.7713 58.9775 20.7794 58.9291 20.7888Z" fill="#059E9E"/>
<path d="M59.0755 20.7623L60.7985 21.9115C60.486 20.9885 59.8009 20.3263 59.0477 20.189C59.1874 20.361 59.3166 20.5312 59.4323 20.6973C59.3131 20.7173 59.1943 20.7399 59.0755 20.7623Z" fill="#059E9E"/>
<path d="M58.9296 20.7888C58.3576 20.9005 57.7916 21.0383 57.2301 21.1934C57.177 21.2995 57.132 21.412 57.0935 21.5292C57.3281 21.9941 57.542 22.5742 57.6937 23.2955C57.8035 23.8178 57.8616 24.2761 57.8875 24.6883C58.0456 24.8342 58.2169 24.9537 58.3972 25.0436C58.5488 24.8596 58.6966 24.6732 58.8353 24.4815C58.9509 24.3217 59.2084 24.4888 59.0924 24.6491C59.0121 24.7601 58.9264 24.8672 58.8404 24.9737C58.7893 25.0368 58.7373 25.099 58.6853 25.1614C58.8461 25.2103 59.0112 25.2329 59.1774 25.2318C59.2806 24.8206 59.3308 24.3584 59.3474 23.7491C59.3748 22.7474 59.2175 21.7503 58.9296 20.7888Z" fill="#059E9E"/>
<path d="M58.9298 20.7887C58.9782 20.7793 59.0268 20.7712 59.0753 20.7622L59.0142 20.7215C58.9792 20.7222 58.9442 20.7207 58.9092 20.7208C58.9161 20.7434 58.923 20.7661 58.9298 20.7887Z" fill="#04ADAD"/>
<path d="M59.3633 20.7059C59.2473 20.7142 59.1313 20.7192 59.0151 20.7213L59.0762 20.7621C59.195 20.7398 59.3138 20.7172 59.4331 20.6971C59.3173 20.531 59.1881 20.3607 59.0484 20.1887C59.0408 20.1873 59.0332 20.1861 59.0256 20.1848C59.1381 20.3584 59.2507 20.5323 59.3633 20.7059Z" fill="#04ADAD"/>
<path d="M57.6606 20.61C57.4891 20.7709 57.3435 20.9678 57.2305 21.1937C57.792 21.0386 58.3581 20.9008 58.9301 20.789C58.9233 20.7664 58.9164 20.7437 58.9095 20.7211C58.4909 20.7223 58.0724 20.6856 57.6606 20.61Z" fill="#059E9E"/>
<path d="M58.9099 20.7209C58.9449 20.7208 58.9799 20.7223 59.0149 20.7216L58.8819 20.6327C58.8911 20.6621 58.9009 20.6914 58.9099 20.7209Z" fill="#04ADAD"/>
<path d="M59.015 20.7215C59.1311 20.7194 59.2472 20.7144 59.3632 20.7061C59.2506 20.5325 59.1381 20.3586 59.0256 20.185C58.9261 20.1682 58.8255 20.1631 58.7244 20.1653C58.7805 20.32 58.8326 20.476 58.882 20.6328L59.015 20.7215Z" fill="#059E9E"/>
<path d="M58.2894 20.3915C58.2034 20.4358 58.0763 20.4261 57.9939 20.3649C57.874 20.4319 57.7628 20.5141 57.6609 20.6098C58.0728 20.6855 58.4914 20.7221 58.91 20.7209C58.901 20.6915 58.8911 20.6623 58.8819 20.6329L58.3877 20.3032C58.3649 20.3381 58.3335 20.3688 58.2894 20.3915Z" fill="#059E9E"/>
<path d="M58.425 20.1981C58.4198 20.2357 58.407 20.2711 58.3863 20.3029L58.8806 20.6326C58.8311 20.4758 58.779 20.3198 58.7229 20.1652C58.6272 20.1673 58.5313 20.175 58.4355 20.1951C58.4319 20.1959 58.4286 20.1973 58.425 20.1981Z" fill="#059E9E"/>
<path d="M58.2883 20.3918C58.3323 20.369 58.3639 20.3384 58.3866 20.3035L58.2872 20.2371C58.1842 20.2698 58.086 20.3128 57.9927 20.3651C58.0751 20.4263 58.2023 20.4361 58.2883 20.3918Z" fill="#059E9E"/>
<path d="M58.4249 20.1985C58.3777 20.2088 58.332 20.2227 58.2867 20.237L58.3862 20.3033C58.407 20.2715 58.4197 20.2361 58.4249 20.1985Z" fill="#04ADAD"/>
<path d="M57.7825 25.739C57.2383 26.3124 56.6467 26.8451 56.0446 27.3352C55.5806 27.7129 55.0958 28.0632 54.5927 28.3867C54.6835 28.4049 54.7574 28.4466 54.7998 28.5149C54.8158 28.5405 54.8263 28.5685 54.8324 28.598C55.9332 27.8815 56.9542 27.0314 57.8655 26.081C57.8733 25.9901 57.8805 25.8973 57.8865 25.802C57.8516 25.7819 57.8168 25.761 57.7825 25.739Z" fill="#0B0042"/>
<path d="M57.8652 26.0807C57.9266 26.0168 57.9868 25.9519 58.0471 25.8871C57.9927 25.8609 57.9391 25.8321 57.8861 25.8016C57.8801 25.8969 57.873 25.9898 57.8652 26.0807Z" fill="#0B0042"/>
<path d="M57.8858 25.802C57.8895 25.7424 57.8925 25.6814 57.8953 25.6199C57.8581 25.6601 57.8196 25.6992 57.7819 25.7389C57.8162 25.7609 57.8508 25.7819 57.8858 25.802Z" fill="#0B0042"/>
<path d="M57.8962 25.6197C57.8934 25.6813 57.8903 25.7422 57.8866 25.8018C57.9396 25.8323 57.9932 25.8611 58.0476 25.8873C58.2673 25.6511 58.4803 25.409 58.6861 25.1615C58.5879 25.1317 58.4922 25.0905 58.3979 25.0436C58.2363 25.2396 58.0698 25.4325 57.8962 25.6197Z" fill="#0B0042"/>
<path d="M59.0925 24.6494C59.2085 24.489 58.9512 24.322 58.8356 24.4817C58.6969 24.6734 58.549 24.8599 58.3973 25.0439C58.4915 25.0908 58.5873 25.1318 58.6855 25.1617C58.7374 25.0992 58.7896 25.037 58.8406 24.9739C58.9266 24.8675 59.0122 24.7603 59.0925 24.6494Z" fill="#0B0042"/>
<path d="M53.9883 28.5346C53.6603 28.7387 53.4919 29.061 53.6122 29.2542C53.6891 29.3778 53.8656 29.4179 54.0683 29.3781L54.1572 29.3313L54.7957 28.8374C54.8337 28.7531 54.8475 28.6706 54.8326 28.5982C54.7198 28.6717 54.6064 28.744 54.492 28.8145C54.3233 28.9186 54.1845 28.6446 54.3513 28.5417C54.4328 28.4914 54.5124 28.4386 54.593 28.3869C54.4266 28.3535 54.2006 28.4024 53.9883 28.5346Z" fill="#0B0042"/>
<path d="M54.068 29.3776C54.0819 29.3749 54.0961 29.3704 54.1102 29.3669L54.1569 29.3309L54.068 29.3776Z" fill="#0B0042"/>
<path d="M54.6028 29.0965C54.6899 29.0145 54.7557 28.9248 54.7952 28.8369L54.1566 29.331L54.6028 29.0965Z" fill="#0B0042"/>
<path d="M54.1094 29.367C54.2118 29.3419 54.3187 29.2991 54.4228 29.2343C54.4898 29.1926 54.5496 29.1459 54.6022 29.0965L54.156 29.3311L54.1094 29.367Z" fill="#0B0042"/>
<path d="M54.4923 28.8144C54.6066 28.7439 54.7201 28.6716 54.8328 28.5981C54.8267 28.5686 54.8162 28.5406 54.8002 28.515C54.7578 28.4467 54.684 28.4049 54.5932 28.3868C54.5127 28.4385 54.433 28.4913 54.3516 28.5416C54.1848 28.6445 54.3236 28.9185 54.4923 28.8144Z" fill="#0B0042"/>
<path d="M57.9828 30.4896C57.8697 30.4116 57.8421 30.259 57.8252 30.1226C57.7687 29.6664 57.6936 29.2808 57.6533 28.9174C57.6532 28.9161 57.653 28.9153 57.6529 28.914C57.6527 28.9124 57.6527 28.911 57.6526 28.9094C57.6326 28.7272 57.6221 28.5505 57.6271 28.3732C57.58 28.4289 57.5298 28.4863 57.4735 28.5476C57.3028 28.7332 56.7622 29.3854 56.5104 29.6234C56.306 29.8166 55.6274 30.2087 55.3851 30.3212C54.9898 30.5048 54.6245 30.6867 54.203 30.7348C54.1373 30.7423 54.0759 30.7492 54.018 30.7551C53.7018 30.8903 53.3483 30.8978 53.0001 30.8687C52.9298 31.8835 52.5103 32.8776 51.7854 33.5938C52.3744 34.3359 53.3938 34.5518 54.3303 34.6949C55.5397 34.8797 56.7929 35.0225 57.9721 34.6967C58.7596 34.4791 59.4886 34.0531 60.0647 33.4738C60.1908 33.3469 60.3188 33.1749 60.262 33.0051C60.2217 32.8845 60.1015 32.813 59.993 32.7467C59.168 32.2434 58.526 31.4487 58.2018 30.5389C58.1232 30.5434 58.0466 30.5336 57.9828 30.4896Z" fill="#FFC3C5"/>
<path d="M51.3804 32.458C50.6045 32.458 49.8736 32.9002 48.9574 33.2209C47.9703 33.5664 47.3369 34.2093 46.6215 34.8911C45.9916 35.4912 44.5583 37.4475 43.9939 38.1096C42.3882 39.9933 40.8342 42.1757 39.3921 44.1873C38.2819 45.736 37.4651 46.0484 35.9649 47.2233C34.9229 48.0392 33.7031 48.5886 32.5295 49.2C30.8866 50.056 29.3139 51.0468 27.8325 52.1591C27.7049 52.2549 27.5722 52.3592 27.5133 52.5075C27.4573 52.6489 27.4775 52.8075 27.4985 52.9582C27.5757 53.5094 27.6528 54.0605 27.7299 54.6117C27.7436 54.7093 27.7601 54.8132 27.8265 54.886C27.9047 54.9719 28.0304 54.9914 28.1458 55.004C29.1814 55.1171 30.227 55.0892 31.2672 55.0336C32.3127 54.9778 33.3615 54.8933 34.3816 54.6574C35.397 54.4226 36.3715 54.0406 37.3419 53.6601C38.7946 53.0903 40.2577 52.5151 41.5745 51.6779C44.0649 50.0942 45.8894 47.6676 47.5174 45.2061C47.8201 44.7485 48.1191 44.2855 48.3433 43.7847C48.6119 43.1848 48.768 42.5417 48.9216 41.9027C49.2199 40.6625 49.5145 39.4216 49.8054 38.1797" fill="#01ABA1"/>
<path d="M58.729 31.558C57.4797 32.5859 56.25 33.0028 54.4861 32.8935C53.7021 32.845 53.2328 32.6804 52.6932 32.211C52.0095 32.8404 51.4365 33.6832 51.2783 34.5164C50.7748 37.1691 50.7455 39.8651 50.7173 42.5497C50.6723 46.8278 50.6273 51.106 50.5824 55.384C50.582 55.4225 50.5826 55.4639 50.61 55.4951C50.6419 55.5317 50.7005 55.5437 50.7541 55.5529C52.7585 55.898 54.821 56.0147 56.8641 55.8989C57.7845 55.8466 58.7399 55.7513 59.6057 56.0131C59.4811 54.8625 59.8385 53.7184 60.1555 52.593C60.8512 50.1228 61.3666 47.5975 61.2647 45.0635C61.2307 44.2161 61.1277 43.3713 61.0943 42.524C61.0381 41.097 61.1793 39.6694 61.16 38.2417C61.142 36.9074 60.9834 35.5745 60.6866 34.2625C60.447 33.2035 59.5319 32.4099 58.729 31.558Z" fill="white"/>
<path d="M52.6933 32.2111C52.6322 34.0664 52.442 35.7332 52.4237 37.8616C52.4152 38.8424 52.3658 39.5924 52.3678 40.5726C52.3693 41.2464 52.3186 41.9194 52.2679 42.592C51.9482 46.8379 51.6286 51.0839 51.3089 55.3298C51.3031 55.4067 51.295 55.4887 51.2377 55.5497C51.1454 55.6479 50.9699 55.6511 50.819 55.6456C49.2209 55.5869 47.6227 55.5282 46.0247 55.4695C46.156 54.3249 46.2875 53.1802 46.4188 52.0355C46.5522 50.8729 46.6857 49.7048 46.6021 48.539C46.5188 47.3768 46.2204 46.2278 46.1948 45.0636C46.1778 44.2931 46.2806 43.5246 46.3832 42.7587C46.5286 41.6736 46.6738 40.5886 46.8192 39.5035C47.079 37.5638 47.3969 35.5059 48.8984 33.9928C49.3192 33.5688 49.8198 33.2035 50.318 32.8402C50.9657 32.3678 51.8338 32.2998 52.6933 32.2111Z" fill="white"/>
<path d="M58.7291 31.558C58.8032 33.1894 58.7727 36.8844 58.5792 39.1296C58.0265 45.5407 57.9461 49.3169 56.6797 55.626C56.6503 55.7722 56.6291 55.9439 56.7565 56.0482C56.8573 56.1307 57.0143 56.1381 57.1561 56.1405C58.9802 56.1708 60.8045 56.2012 62.6286 56.2315C62.7391 56.2334 62.8572 56.2335 62.95 56.1837C63.0554 56.1272 63.1016 56.0211 63.1394 55.922C63.8706 54.0058 63.987 51.9705 64.0508 49.9617C64.1355 47.2982 64.1376 44.6329 64.057 41.9694C63.9795 39.4048 63.8328 36.7884 64.6962 34.3244C64.8229 33.9625 65.1081 33.6229 64.8489 33.313C64.7143 33.1521 64.3491 32.9764 64.1376 32.8887C62.6759 32.2825 60.3049 31.9187 58.7291 31.558Z" fill="white"/>
<path d="M57.554 49.8759C57.554 49.8759 59.2247 49.228 60.8063 47.1869C62.3878 45.1458 62.1769 43.712 62.1769 42.5766C62.1769 41.4412 61.9875 35.1692 64.1504 35.3584C66.3132 35.5477 64.529 46.0641 64.529 46.0641L61.7172 49.3082L58.5797 50.6599" fill="#04ADAD"/>
<path d="M48.8168 53.8082C48.8168 53.8082 46.2957 52.9433 45.2345 53.3393C44.1733 53.7353 42.6929 54.3355 42.6955 55.8895L48.7775 56.0092" fill="white"/>
<path d="M64.7683 33.2061C64.059 34.1952 63.4368 35.5385 63.0665 37.0622C62.5891 39.0272 62.7256 39.8745 62.6359 42.1507C62.5852 43.4381 62.6865 44.7501 62.2251 46.3689C61.8677 47.623 60.8555 48.2031 59.6685 48.7351C58.4815 49.267 57.2176 49.5999 55.9862 50.0179C53.0513 51.0141 50.2676 51.7272 47.5024 53.1293C46.6501 53.5616 47.5595 54.6365 47.5457 54.8045C47.5357 54.926 47.597 55.0406 47.6564 55.1469C48.1507 56.031 48.2376 55.8518 48.7116 56.1746C48.8822 56.2907 49.425 56.0472 49.604 56.1498C49.7752 56.248 50.2584 56.1433 50.4555 56.138C51.1709 56.1185 51.9936 56.1533 52.7006 56.0425C56.3489 55.4706 59.4698 56.5825 62.8979 55.2051C63.8339 54.829 64.7771 54.412 65.5228 53.7309C66.5791 52.766 67.1313 51.3722 67.5404 49.9989C69.0827 44.821 69.1373 39.0283 66.3988 34.3728C66.049 33.778 65.3695 33.2737 64.7683 33.2061Z" fill="white"/>
<path d="M90.4609 56.0876C89.6528 56.0876 88.8446 56.0876 88.0365 56.0876C85.8571 56.0876 83.6774 56.0876 81.498 56.0876C78.2666 56.0876 75.0354 56.0876 71.8041 56.0876C67.8617 56.0876 63.9195 56.0876 59.9772 56.0876C55.6743 56.0876 51.3713 56.0876 47.0684 56.0876C42.6955 56.0876 38.3226 56.0876 33.9497 56.0876C29.9001 56.0876 25.8505 56.0876 21.801 56.0876C18.3666 56.0876 14.9322 56.0876 11.4978 56.0876C9.02861 56.0876 6.55939 56.0876 4.09018 56.0876C2.92383 56.0876 1.75501 56.0653 0.588903 56.0876C0.537898 56.0886 0.486771 56.0876 0.435766 56.0876C-0.144763 56.0876 -0.145748 56.99 0.435766 56.99C1.24385 56.99 2.05205 56.99 2.86013 56.99C5.03957 56.99 7.21926 56.99 9.39871 56.99C12.63 56.99 15.8613 56.99 19.0926 56.99C23.0349 56.99 26.9772 56.99 30.9195 56.99C35.2223 56.99 39.5254 56.99 43.8282 56.99C48.2012 56.99 52.5741 56.99 56.947 56.99C60.9965 56.99 65.0462 56.99 69.0957 56.99C72.5301 56.99 75.9645 56.99 79.3988 56.99C81.8681 56.99 84.3373 56.99 86.8065 56.99C87.9728 56.99 89.1417 57.0123 90.3078 56.99C90.3588 56.989 90.4099 56.99 90.4609 56.99C91.0414 56.99 91.0424 56.0876 90.4609 56.0876Z" fill="#0B0042"/>
<path d="M55.4882 56.2377H11.8902C11.6459 56.2377 11.4479 56.0396 11.4479 55.7953V55.5184C11.4479 55.274 11.6459 55.0759 11.8902 55.0759H55.4882C55.7325 55.0759 55.9305 55.274 55.9305 55.5184V55.7953C55.9305 56.0396 55.7325 56.2377 55.4882 56.2377Z" fill="#80B8BC"/>
<path d="M38.7017 56.2377H12.1476C11.7877 56.2377 11.486 55.966 11.4483 55.6081L9.59569 38.0096C9.55195 37.5944 9.87757 37.2328 10.295 37.2328H37.0961C37.4597 37.2328 37.7633 37.51 37.7964 37.8721L39.4019 55.4706C39.4395 55.8825 39.1152 56.2377 38.7017 56.2377Z" fill="#80B8BC"/>
<path d="M37.837 56.2377H11.2829C10.923 56.2377 10.6213 55.966 10.5836 55.6081L8.73098 38.0096C8.68725 37.5944 9.01287 37.2328 9.43028 37.2328H36.2314C36.595 37.2328 36.8986 37.51 36.9317 37.8721L38.5372 55.4706C38.5748 55.8825 38.2505 56.2377 37.837 56.2377Z" fill="#94D5DB"/>
<g opacity="0.48">
<path d="M24.0628 46.9683C24.0628 47.7808 23.4041 48.4395 22.5915 48.4395C21.779 48.4395 21.1203 47.7808 21.1203 46.9683C21.1203 46.1557 21.779 45.497 22.5915 45.497C23.4041 45.497 24.0628 46.1557 24.0628 46.9683Z" fill="white"/>
</g>
<path d="M49.5611 23.8212C49.3903 23.8571 49.2888 24.0626 49.3346 24.2802C49.3804 24.4978 49.556 24.6451 49.7268 24.6092C49.8977 24.5732 49.9991 24.3677 49.9533 24.1501C49.9076 23.9325 49.732 23.7852 49.5611 23.8212Z" fill="#0B0042"/>
<path d="M53.3678 22.6153C53.1969 22.6512 53.0955 22.8567 53.1413 23.0743C53.187 23.292 53.3626 23.4392 53.5335 23.4033C53.7043 23.3674 53.8058 23.1619 53.76 22.9442C53.7142 22.7266 53.5386 22.5794 53.3678 22.6153Z" fill="#0B0042"/>
<path d="M51.1159 27.4965L50.8334 27.5908C50.8334 27.5908 51.2627 28.3938 52.0816 28.5271C52.317 28.5654 52.5845 28.5487 52.8835 28.4412C53.8724 28.0855 54.4306 26.3889 54.4306 26.3889L51.1159 27.4965Z" fill="white"/>
</svg>
