<svg width="220" height="34" viewBox="0 0 220 34" fill="none" xmlns="http://www.w3.org/2000/svg">
<path d="M69.1334 24.2565H84.9948V19.8537H75.0814V7.75173H69.1334V24.2565Z" fill="white"/>
<path d="M95.9299 24.6254C99.0749 24.6254 102.083 23.9108 103.678 22.8735L102.197 20.2917C100.989 20.9832 98.6419 21.4904 96.3174 21.4904C94.1068 21.4904 92.0557 20.9371 91.4404 19.5541H103.747C103.861 19.1622 103.906 18.655 103.906 18.3093C103.906 14.4827 100.374 11.9701 95.0184 11.9701C89.5717 11.9701 85.7659 14.575 85.7659 18.2862C85.7659 22.1589 89.868 24.6254 95.9299 24.6254ZM91.3493 17.2259C91.5544 15.8889 93.0357 14.9438 94.9728 14.9438C96.8643 14.9438 98.414 15.8658 98.4823 17.2259H91.3493Z" fill="white"/>
<path d="M109.915 24.2565H116.821L123.247 12.362H117.527L113.425 20.9141H113.402L109.3 12.362H103.58L109.915 24.2565Z" fill="white"/>
<path d="M132.918 24.6254C136.063 24.6254 139.071 23.9108 140.666 22.8735L139.185 20.2917C137.977 20.9832 135.63 21.4904 133.306 21.4904C131.095 21.4904 129.044 20.9371 128.429 19.5541H140.735C140.849 19.1622 140.894 18.655 140.894 18.3093C140.894 14.4827 137.362 11.9701 132.007 11.9701C126.56 11.9701 122.754 14.575 122.754 18.2862C122.754 22.1589 126.856 24.6254 132.918 24.6254ZM128.337 17.2259C128.543 15.8889 130.024 14.9438 131.961 14.9438C133.852 14.9438 135.402 15.8658 135.471 17.2259H128.337Z" fill="white"/>
<path d="M152.645 11.9701C150.525 11.9701 148.611 13.1688 147.745 15.1051H147.722L146.993 12.362H142.504V24.2565H147.905V18.9547C147.905 16.6957 148.816 15.2665 150.343 15.2665C151.46 15.2665 152.235 16.396 152.326 18.171L157.248 17.2028C157.066 14.0217 155.266 11.9701 152.645 11.9701Z" fill="white"/>
<path d="M158.599 24.2565H164.547V19.2083H171.703C176.352 19.2083 178.927 17.2028 178.95 13.5607C178.95 9.82636 176.375 7.75173 171.749 7.75173H158.599V24.2565ZM164.547 15.8197V11.1403H169.766C171.84 11.1403 172.979 11.9701 172.979 13.4685C172.979 14.9899 171.84 15.8197 169.766 15.8197H164.547Z" fill="white"/>
<path d="M185.406 24.6254C188.642 24.6254 191.218 23.4958 192.38 21.6748H192.403L193.132 24.2565H197.804V16.5574C197.804 13.6298 194.385 11.9701 189.212 11.9701C185.497 11.9701 181.806 12.9844 179.527 14.5519L180.94 17.3872C183.173 15.935 186.363 15.0129 189.212 15.0129C191.195 15.0129 192.494 15.4509 192.494 16.0272C192.494 16.2577 192.197 16.4421 191.696 16.4882L187.207 16.9031C182.33 17.3642 179.481 18.9778 179.481 21.3521C179.481 23.4267 181.669 24.6254 185.406 24.6254ZM187.321 21.3982C185.725 21.3982 184.882 21.0524 184.882 20.4531C184.882 19.8307 185.816 19.4849 187.571 19.3466L192.403 18.9086V18.9547C192.403 20.407 190.374 21.3982 187.321 21.3982Z" fill="white"/>
<path d="M206.178 29.4662C212.696 29.4662 216.957 26.5156 216.957 21.9975V12.362H211.579V17.3411C211.579 19.6002 210.121 21.0524 207.933 21.0524C206.041 21.0524 204.788 19.7154 204.788 17.6869V12.362H199.387L199.364 18.2632C199.364 21.7439 201.871 24.2565 205.745 24.2565C208.548 24.2565 210.827 22.9196 211.556 20.868H211.579V21.7439C211.579 24.0721 209.3 25.5935 205.813 25.5935C203.671 25.5935 201.187 24.8098 199.455 23.8416L197.792 27.3685C199.637 28.5211 202.988 29.4662 206.178 29.4662Z" fill="white"/>
<path d="M216.425 3.39961L219.866 14.3567L208.764 11.8925L216.425 3.39961Z" fill="white"/>
<path d="M22.1402 0.778278C15.2305 2.94452 10.2185 9.38798 10.2185 16.9999C10.2185 24.6119 15.2305 31.0553 22.1402 33.2216C20.5273 33.7272 18.811 33.9999 17.0309 33.9999C7.62498 33.9999 0 26.3887 0 16.9999C0 7.61112 7.62498 0 17.0309 0C18.811 0 20.5273 0.272638 22.1402 0.778278Z" fill="white"/>
<path d="M47.0053 16.9999C47.0053 26.3887 39.3803 33.9999 29.9744 33.9999C20.5685 33.9999 12.9435 26.3887 12.9435 16.9999C12.9435 7.61113 20.5685 0 29.9744 0C39.3803 0 47.0053 7.61113 47.0053 16.9999Z" fill="white"/>
<path d="M49.3896 16.9999C49.3896 9.38798 44.3776 2.94448 37.468 0.778278C39.0809 0.272596 40.7972 0 42.5772 0C48.4645 0 53.654 2.98175 56.7129 7.51487C54.8847 10.2242 53.8176 13.4877 53.8176 16.9999C53.8176 20.5122 54.8847 23.7757 56.7129 26.485C53.654 31.0181 48.4645 33.9999 42.5772 33.9999C40.7972 33.9999 39.0809 33.7273 37.468 33.2216C44.3776 31.0553 49.3896 24.6119 49.3896 16.9999Z" fill="white"/>
<path d="M59.4378 7.51487C57.6096 10.2242 56.5426 13.4877 56.5426 16.9999C56.5426 20.5122 57.6096 23.7757 59.4378 26.485C61.266 23.7757 62.3331 20.5122 62.3331 16.9999C62.3331 13.4877 61.266 10.2242 59.4378 7.51487Z" fill="white"/>
</svg>
