<svg width="101" height="95" viewBox="0 0 101 95" fill="none" xmlns="http://www.w3.org/2000/svg">
<mask id="mask0_1_219" style="mask-type:luminance" maskUnits="userSpaceOnUse" x="-12" y="-23" width="134" height="134">
<path d="M121.428 -22.0691H-11.5057V110.865H121.428V-22.0691Z" fill="white"/>
</mask>
<g mask="url(#mask0_1_219)">
<path d="M16.8707 51.2903C0.864149 75.8094 31.4451 87.0926 50.7857 87.0926C69.8047 87.0926 91.2988 79.9186 91.2988 57.8694C91.2988 1.11035 44.3436 9.20534 16.8707 51.2903Z" fill="#ECE9F4"/>
<path d="M68.6867 88.6936C70.427 88.7027 71.8325 90.1231 71.8234 91.8633C71.8142 93.6036 70.3939 95.0091 68.6536 95C66.9134 94.9909 65.5078 93.5705 65.517 91.8302C65.5261 90.09 66.9465 88.6844 68.6867 88.6936Z" fill="#ECE9F4"/>
<path d="M95.1845 75.3027C95.2022 76.646 94.0065 77.7509 92.5139 77.7705C91.0213 77.7901 89.797 76.7169 89.7794 75.3736C89.7618 74.0303 90.9575 72.9254 92.45 72.9058C93.9426 72.8862 95.1669 73.9593 95.1845 75.3027Z" fill="#ECE9F4"/>
<path d="M87.6492 79.6832C87.6426 80.1807 87.1131 80.5771 86.4663 80.5686C85.8195 80.5601 85.3006 80.1499 85.3071 79.6524C85.3136 79.1549 85.8432 78.7585 86.49 78.767C87.1368 78.7755 87.6557 79.1856 87.6492 79.6832Z" fill="#ECE9F4"/>
<path d="M56.1038 9.84662C56.0829 11.4388 54.3722 12.7071 52.2825 12.6796C50.1928 12.6522 48.516 11.3394 48.5369 9.7473C48.5577 8.15516 50.2685 6.88685 52.3582 6.91428C54.4479 6.94171 56.1247 8.25448 56.1038 9.84662Z" fill="#ECE9F4"/>
<path d="M7.56721 47.6785C7.58811 49.2707 5.91122 50.5834 3.82155 50.6109C1.73188 50.6383 0.0211161 49.37 0.00021863 47.7778C-0.0206789 46.1857 1.65621 44.8729 3.74588 44.8455C5.83555 44.8181 7.54632 46.0864 7.56721 47.6785Z" fill="#ECE9F4"/>
<path d="M16.5086 20.7578C16.4982 21.5538 15.7638 22.1897 14.8682 22.1779C13.9727 22.1661 13.2552 21.5113 13.2656 20.7152C13.2761 19.9191 14.0105 19.2833 14.906 19.2951C15.8017 19.3068 16.5191 19.9617 16.5086 20.7578Z" fill="#ECE9F4"/>
<path d="M90.6907 6.15831C88.2995 7.48804 85.4635 8.29747 82.6745 8.36407C76.6244 8.50857 65.8429 2.77767 50.5686 1.58472C31.888 0.125775 16.2422 9.7305 18.6646 30.7736" stroke="#8987BF" stroke-width="2.861" stroke-miterlimit="10" stroke-dasharray="8.17 16.35"/>
<path d="M85.1022 9.47507L85.4283 5.01166L99.473 2.88809L85.1022 9.47507Z" fill="#A6A4E8"/>
<path d="M99.4725 2.88811L88.369 10.5818L86.1314 6.43573L99.4725 2.88811Z" fill="#DEDFF5"/>
<path d="M99.4726 2.88825L85.4281 5.01171L83.2909 1.06907L99.4726 2.88825Z" fill="#DEDFF5"/>
<path d="M86.1314 6.43574L85.1019 9.47499L87.107 8.24307L86.1314 6.43574Z" fill="#8987BF"/>
<mask id="mask1_1_219" style="mask-type:alpha" maskUnits="userSpaceOnUse" x="8" y="2" width="84" height="86">
<path d="M8.33528 36.9944C6.71694 49.5505 11.7401 70.0179 17.5633 75.8283C25.2085 83.4568 39.8089 87.0926 50.7874 87.0926C69.8065 87.0926 91.3005 79.9184 91.3005 57.8692C91.3005 45.3733 89.0547 33.7612 82.235 22.9117C70.5498 4.32181 53.5729 0.438417 41.3543 4.10181C28.3129 8.01192 10.6223 19.2495 8.33528 36.9944Z" fill="#FF0000"/>
</mask>
<g mask="url(#mask1_1_219)">
<mask id="mask2_1_219" style="mask-type:luminance" maskUnits="userSpaceOnUse" x="-12" y="-23" width="134" height="134">
<path d="M-11.5053 -22.0691H121.428V110.865H-11.5053V-22.0691Z" fill="white"/>
</mask>
<g mask="url(#mask2_1_219)">
<path d="M61.9048 71.9256C59.7134 73.2641 56.8474 72.5717 55.5089 70.3803C54.1704 68.1889 54.8629 65.323 57.0542 63.9845C59.2456 62.646 62.1116 63.3384 63.4501 65.5298C64.7886 67.7211 64.0961 70.5871 61.9048 71.9256Z" fill="#6C52CF"/>
<path d="M50.2988 52.9235C47.7631 54.4724 44.4467 53.6711 42.8979 51.1354C41.349 48.5997 42.1503 45.2833 44.686 43.7345C47.2217 42.1856 50.5381 42.9869 52.0869 45.5226C53.6358 48.0583 52.8345 51.3747 50.2988 52.9235Z" fill="#6C52CF"/>
<path d="M43.3637 44.0321C42.0875 45.0684 41.7054 47.5552 41.9854 48.9695C42.248 50.2969 43.681 52.4911 44.9282 55.2204C46.1751 57.9497 54.4143 70.4791 56.8779 71.9346C59.3417 73.3901 61.3926 73.2038 62.9627 71.6682C64.5327 70.1326 64.6112 67.2355 63.6034 65.6715C61.6702 62.6716 59.6993 59.1949 59.6993 59.1949C59.6993 59.1949 54.6227 49.9647 53.5826 47.8644C52.5426 45.7641 48.9463 39.4988 43.3637 44.0321Z" fill="#6D52CF"/>
<path d="M61.6847 63.8786C63.9405 65.1054 64.776 67.9329 63.5492 70.1887C62.3224 72.4446 59.4948 73.28 57.239 72.0532C54.9832 70.8264 54.1478 67.9988 55.3746 65.743C56.6013 63.4872 59.4289 62.6518 61.6847 63.8786Z" fill="#6C52CF"/>
<path d="M58.6689 69.5253C61.0562 70.6783 62.2016 70.8951 63.2163 70.4782C64.4411 69.9751 64.7664 62.3039 64.7664 62.3039L64.9308 60.9154L62.2558 59.2986L61.205 60.137L56.8914 63.5945C56.8914 63.5945 55.6764 65.1955 55.4034 65.7038C54.7126 66.9901 57.7524 69.0826 58.6689 69.5253Z" fill="#AEBFDE"/>
<path d="M61.6849 63.8784C63.9407 65.1052 64.7761 67.9328 63.5493 70.1886C62.3225 72.4444 59.4949 73.2799 57.2391 72.0531C54.9833 70.8263 54.1479 67.9987 55.3747 65.7429C56.6015 63.4871 59.4291 62.6516 61.6849 63.8784ZM58.6701 69.5249C61.0573 70.678 62.2015 70.8947 63.2164 70.4781C64.0695 70.128 64.4863 66.3038 64.661 64.0125C63.7549 63.553 58.6701 62.1708 58.6701 62.1708L56.8912 63.5942C56.8912 63.5942 55.6773 65.1948 55.404 65.7029C54.713 66.9901 57.7532 69.0823 58.6701 69.5249Z" stroke="#6D53CF"/>
<path d="M61.6849 63.8786C63.9407 65.1054 64.7762 67.9329 63.5494 70.1887C62.3226 72.4446 59.495 73.28 57.2392 72.0532C54.9834 70.8264 54.1479 67.9988 55.3747 65.743C56.6015 63.4872 59.4291 62.6518 61.6849 63.8786Z" fill="#6C52CF"/>
<path d="M58.6691 69.5249C61.0564 70.678 62.2018 70.8947 63.2165 70.4779C64.069 70.1277 64.4858 66.3039 64.6603 64.0123C63.7544 63.5522 58.6701 62.1705 58.6701 62.1705L56.8916 63.5942C56.8916 63.5942 55.6766 65.1952 55.4036 65.7035C54.7128 66.9897 57.7526 69.0823 58.6691 69.5249Z" fill="#6D53CF"/>
<path d="M32.6895 32.7251C34.6846 33.7453 36.7174 34.6889 38.7622 35.6057C39.3783 35.8811 40 36.1575 40.66 36.296L40.7959 40.03C40.7959 40.03 42.7653 42.6547 42.6987 42.8488C42.6966 42.8552 42.6913 42.8598 42.6888 42.8661C42.0749 44.3948 38.4277 46.0518 36.6819 46.0514C34.7988 46.051 32.7859 44.9502 32.286 43.2286C32.248 43.2171 32.5782 38.3419 32.4677 37.2808C32.4332 36.9557 32.3909 36.6312 32.3386 36.3089C32.2142 35.5052 32.0443 34.7094 31.8748 33.9116C31.7352 33.2574 31.596 32.6012 31.4565 31.947C31.8476 32.3025 32.2161 32.4829 32.6895 32.7251Z" fill="#FFCFCA"/>
<path d="M44.7838 26.3004C44.5716 28.8952 43.438 31.4176 41.5847 33.246C40.737 34.0822 39.7391 34.7768 38.6292 35.2081C37.4111 35.6815 36.0821 35.8287 34.777 35.7605C34.0065 35.7202 33.2298 35.6035 32.5222 35.2956C31.6743 34.9267 30.9658 34.3018 30.3055 33.6542C29.177 32.5474 28.1366 31.3342 27.3649 29.9547C26.5933 28.5752 26.0978 27.0186 26.1028 25.4378C26.1045 24.9013 26.1657 24.3567 26.3733 23.862C26.6498 23.2031 27.1654 22.6769 27.6937 22.1958C29.4387 20.6066 31.4867 19.3036 33.7612 18.6735C36.1137 18.0217 38.5992 18.1103 41.0385 18.2038C41.6558 18.2274 42.2192 18.3481 42.7151 18.736C43.1206 19.0531 43.3428 19.5889 43.5645 20.0403C44.1756 21.2847 44.5783 22.6326 44.7406 24.0098C44.83 24.7694 44.8462 25.5379 44.7838 26.3004Z" fill="#534741"/>
<path d="M40.7959 40.0299C38.5122 39.5199 36.3036 38.6856 34.2838 37.5132C33.6414 37.141 32.9747 36.7416 32.3386 36.3089C32.2142 35.5052 32.0443 34.7094 31.8748 33.9116C31.7352 33.2574 31.596 32.6012 31.4565 31.947C31.8476 32.3025 32.2159 32.4829 32.6894 32.7251C34.6845 33.7453 36.7172 34.6889 38.7621 35.6057C39.3782 35.8811 40 36.1575 40.66 36.296L40.7959 40.0299Z" fill="#F9BFBB"/>
<path d="M44.5124 25.0793C44.3695 24.5022 44.1948 23.9338 43.9927 23.3806C43.3562 21.6347 42.1773 20.0273 40.6059 18.9647C37.5889 16.9267 33.3721 17.4249 30.9383 20.1063C30.3607 20.7416 29.8931 21.4684 29.5613 22.2513C28.7417 24.1709 28.6987 26.2368 29.1447 28.2259C29.5359 29.9852 30.3111 31.6851 31.2666 33.1747C31.8549 34.0898 32.5364 34.9525 33.3446 35.6957C33.8069 36.1209 34.3166 36.5055 34.8602 36.8322C35.9525 37.4885 37.1847 37.9104 38.463 37.9529C39.6179 37.991 40.7947 37.6871 41.7695 37.0789C42.8686 36.3929 43.5342 35.3364 44.0112 34.1775C45.1849 31.3216 45.2553 28.0692 44.5124 25.0793Z" fill="#FFCFCA"/>
<path d="M31.7954 32.565C30.6976 33.1143 29.3077 33.0339 28.2884 32.3478C27.4271 31.7688 26.8639 30.776 26.7857 29.7438C26.772 29.5565 26.774 29.3688 26.7924 29.1791C26.8253 28.8494 26.91 28.5225 27.0667 28.2311C27.4576 27.5128 28.3084 27.0894 29.1226 27.1554C29.9386 27.2219 30.6887 27.7496 31.0783 28.4688L31.3539 30.044L31.7954 32.565Z" fill="#FFCFCA"/>
<path d="M35.2405 22.9095C37.0834 22.5624 38.9313 22.1517 40.6764 21.4992C42.0946 20.969 43.665 19.9492 44.045 18.4157C44.5204 16.4969 42.9079 15.0237 41.3021 14.2713C38.1665 12.8019 34.2914 13.0606 31.4284 15.0386C29.6903 16.2394 28.3826 18.026 27.7821 20.0207C27.4375 21.165 27.2938 22.8952 28.6414 23.4269C30.2068 24.0444 32.1429 23.4658 33.7312 23.1837C34.2325 23.0946 34.7362 23.0045 35.2405 22.9095Z" fill="#534741"/>
<path d="M24.6549 23.3009C24.8156 22.1133 25.3406 21.017 26.3081 20.4016C27.7124 19.5083 29.8371 19.7602 30.6896 21.2886C31.2466 22.287 31.2555 23.5594 31.1039 24.6632C31.0329 25.1799 30.8963 25.6959 30.6198 26.1434C30.4348 26.4429 29.808 27.2183 29.389 27.1571C29.2492 27.1366 29.1033 27.1178 28.9837 27.1082C28.9595 27.1063 28.9354 27.105 28.9111 27.1044C28.4827 27.1057 28.0832 27.2137 27.7129 27.4283C27.4362 27.5774 27.2141 27.7811 27.0465 28.0396C26.5197 28.6148 25.7274 27.6212 25.4484 27.2015C24.7735 26.1859 24.4681 24.6817 24.6549 23.3009Z" fill="#534741"/>
<path d="M40.2933 25.6759C40.3519 25.7816 40.4808 25.7528 40.5823 25.714C40.8885 25.597 41.1947 25.4799 41.5009 25.3629C41.6738 25.2969 41.848 25.2304 42.0252 25.2053C42.127 25.1909 42.7671 25.3044 42.783 25.1632C42.801 25.0051 42.2687 24.8525 42.1763 24.8297C41.702 24.713 41.1931 24.8089 40.7249 25.0168C40.5362 25.1007 40.3252 25.2382 40.2761 25.486C40.2632 25.5512 40.2644 25.6237 40.2933 25.6759Z" fill="#211A17"/>
<path d="M36.041 26.4367C36.2022 26.3994 36.3675 26.403 36.5315 26.4068C36.822 26.4133 37.1124 26.4202 37.4029 26.4268C37.4993 26.4289 37.6182 26.4119 37.653 26.2898C37.6701 26.2294 37.6592 26.1592 37.6372 26.1009C37.5532 25.8792 37.3439 25.8198 37.1629 25.8044C36.714 25.7663 36.2471 25.8506 35.8458 26.1273C35.7676 26.1813 35.3206 26.5128 35.3623 26.6589C35.3995 26.7894 35.9484 26.4581 36.041 26.4367Z" fill="#211A17"/>
<path d="M37.5249 28.5005C37.5413 29.0499 37.2402 29.5046 36.8525 29.5162C36.4647 29.5278 36.137 29.0919 36.1206 28.5424C36.1043 27.993 36.4053 27.5383 36.7931 27.5267C37.1809 27.5151 37.5086 27.9511 37.5249 28.5005Z" fill="#211A17"/>
<path d="M37.0168 28.281C36.7909 28.2878 36.8011 28.639 37.0273 28.6323C37.2532 28.6255 37.243 28.2743 37.0168 28.281Z" fill="white"/>
<path d="M41.27 28.3885C41.2863 28.938 41.614 29.3739 42.0018 29.3623C42.3896 29.3507 42.6906 28.896 42.6743 28.3466C42.6579 27.7972 42.3302 27.3612 41.9424 27.3728C41.5547 27.3844 41.2536 27.8391 41.27 28.3885Z" fill="#211A17"/>
<path d="M42.2773 28.0207C42.0488 28.0275 42.059 28.3825 42.2878 28.3756C42.5163 28.3687 42.5061 28.0138 42.2773 28.0207Z" fill="white"/>
<path d="M40.0702 29.8175C39.8414 29.6393 39.4846 29.6447 39.2692 29.839L39.8949 30.9212C40.0696 30.9099 40.2125 30.765 40.2768 30.6022C40.3833 30.3324 40.2991 29.9956 40.0702 29.8175Z" fill="#CE7872"/>
<path d="M35.0264 29.6827C33.9943 29.7541 33.2045 30.4917 33.2626 31.3304C33.3206 32.1691 34.2042 32.7912 35.2363 32.7198C36.2684 32.6483 37.0582 31.9106 37.0002 31.072C36.9421 30.2335 36.0585 29.6113 35.0264 29.6827Z" fill="#F9BFBB"/>
<path d="M40.0932 34.6303C38.9306 34.7114 37.9357 34.0108 37.8711 33.0671C37.8614 32.9362 37.8711 32.8084 37.8973 32.6834L39.8543 32.6839L42.0663 32.6844C42.0701 32.7144 42.0758 32.7444 42.0787 32.7754C42.1434 33.7201 41.2548 34.5502 40.0932 34.6303Z" fill="#CE7872"/>
<path d="M41.8529 32.6843C41.5243 33.219 40.8703 33.6083 40.0933 33.6615C39.1884 33.7243 38.3854 33.3143 38.0425 32.6834L40.0093 32.6839L41.8529 32.6843Z" fill="white"/>
<path d="M44.4767 30.0973C44.4441 29.6267 43.9482 29.2776 43.369 29.3177C42.7898 29.3577 42.3466 29.7717 42.3792 30.2423C42.4118 30.7128 42.9077 31.0619 43.4869 31.0219C44.0661 30.9819 44.5093 30.5679 44.4767 30.0973Z" fill="#F9BFBB"/>
<path d="M32.3884 40.0041C32.3884 40.0041 23.7352 41.5409 21.1949 44.7136C18.6465 47.8963 21.7434 52.3057 21.8656 55.6037C21.988 58.9017 24.5589 92.162 24.5589 92.162C24.5589 92.162 36.9868 93.5477 43.2357 92.1662C49.4847 90.7845 53.7972 89.52 53.7972 89.52C53.7972 89.52 51.6466 57.5802 51.1549 54.2822C50.6634 50.9842 51.2693 45.7668 49.3017 43.0585C47.7516 40.9248 41.0366 40.4175 41.0366 40.4175C41.0366 40.4175 42.3918 44.1668 38.2043 43.9863C34.0168 43.8058 32.3884 40.0041 32.3884 40.0041Z" fill="#7D67CF"/>
<path d="M57.6574 53.774C56.9788 53.6622 54.0991 53.481 53.03 53.696C51.961 53.9109 48.6552 54.2135 47.4009 54.6259C46.1464 55.0385 45.2711 57.0452 44.2652 57.7594C44.0516 57.9112 43.7532 58.1205 43.3901 58.3727C42.8476 58.7494 42.255 60.2089 43.2637 61.2762C44.2725 62.3436 45.4215 61.6977 45.5981 61.5972C46.7387 60.9482 46.7527 60.5743 47.6307 60.465C48.6444 60.3388 48.4947 60.3792 49.3743 60.0679C50.2539 59.7567 50.6481 58.3223 51.224 57.798C51.7998 57.2737 52.6756 56.6683 52.502 56.3465C52.3283 56.0245 52.2099 55.614 50.1153 56.4747C50.1153 56.4747 52.056 55.3605 52.9752 55.1861C53.8943 55.0117 55.8864 54.9162 56.8056 54.7418C57.7247 54.5674 58.336 53.8857 57.6574 53.774Z" fill="#FEC4AD"/>
<path d="M50.7581 64.8957L58.3633 66.6588C59.1446 66.8356 60.0899 66.3642 60.4784 65.607L68.9286 48.8835C69.3134 48.1331 69.0018 47.3789 68.2291 47.1979L60.6938 45.3999C59.3055 45.3508 58.5927 45.67 58.1964 46.4401L49.7357 63.0415C49.336 63.8182 49.4418 64.3379 50.7581 64.8957Z" fill="#97A3CC"/>
<path d="M51.1853 65.031L58.8271 66.8066C59.6132 66.985 60.5634 66.5127 60.9529 65.7531L69.4364 48.9553C69.8226 48.2025 69.5077 47.4459 68.7299 47.2644L61.1545 45.4619C60.3392 45.2716 59.3518 45.7453 58.9526 46.5211L50.4201 63.275C50.0176 64.0575 50.3619 64.8441 51.1853 65.031Z" fill="url(#paint0_linear_1_219)"/>
<path d="M63.5025 62.0604C64.268 61.8656 65.2885 61.7877 65.5436 61.3203C65.7988 60.8529 66.1814 60.7362 66.6067 60.3857C67.0319 60.0351 66.7768 59.6847 67.287 59.2563C67.7972 58.8278 67.287 58.0879 67.3296 57.6984C67.3721 57.3089 67.4146 56.5301 67.2446 55.829C67.0745 55.1279 66.3941 54.9721 65.5012 54.6996C64.6081 54.4269 63.9702 54.4269 63.9702 54.8554C63.9702 55.2838 64.9058 55.8679 64.9058 55.8679C64.9058 55.8679 63.375 55.4007 62.9498 55.2449C62.5245 55.0891 61.8442 55.4396 62.1418 55.9458C62.4395 56.4522 63.6725 57.1143 64.0553 57.3091C64.438 57.5038 64.6505 57.8932 64.6505 57.8932C64.6505 57.8932 63.5024 57.8932 62.6946 57.5816C61.8866 57.27 61.1638 56.569 60.611 56.8806C60.0582 57.1922 60.3557 57.5816 60.9086 58.01C60.9086 58.01 62.0993 58.7499 62.482 58.9057C62.482 58.9057 61.2914 58.9448 60.696 58.7111C60.1008 58.4774 59.803 58.7499 59.9731 59.1784C60.1432 59.6068 61.8015 59.9572 61.844 60.113C61.8866 60.2688 61.5464 60.6583 61.3338 61.1257C61.1213 61.5931 63.5025 62.0604 63.5025 62.0604Z" fill="#FEC4AD"/>
<path d="M27.3495 67.5398C28.338 69.9097 27.2165 72.6365 24.8466 73.625C22.4767 74.6136 19.7499 73.492 18.7613 71.1221C17.7728 68.7522 18.8944 66.0254 21.2643 65.0369C23.6342 64.0483 26.361 65.1699 27.3495 67.5398Z" fill="#7C67CF"/>
<path d="M18.7539 71.1776C20.0887 73.4902 21.3975 74.1466 23.7664 73.9085C26.6257 73.6213 42.9248 64.3802 42.9248 64.3802L45.4935 62.7799L43.4769 57.4173L40.6889 58.3635L27.8362 62.6272C27.8362 62.6272 22.8107 64.3958 21.3865 64.9931C17.7823 66.5048 18.2416 70.2898 18.7539 71.1776Z" fill="#AEBFDE"/>
<path d="M27.349 67.5397C28.3376 69.9096 27.216 72.6364 24.8461 73.625C22.4762 74.6135 19.7494 73.4919 18.7608 71.122C17.7723 68.7521 18.8939 66.0253 21.2638 65.0368C23.6337 64.0482 26.3605 65.1698 27.349 67.5397ZM18.754 71.1782C20.0887 73.4906 21.3977 74.1459 23.7659 73.9084C26.6263 73.6213 42.9249 64.38 42.9249 64.38L40.6887 58.3631L27.8361 62.6266C27.8361 62.6266 22.8112 64.3956 21.3866 64.9928C17.7826 66.5047 18.2411 70.2903 18.754 71.1782Z" stroke="#6D53CF"/>
<path d="M27.3494 67.5398C28.338 69.9097 27.2164 72.6365 24.8465 73.625C22.4766 74.6136 19.7498 73.492 18.7613 71.1221C17.7727 68.7522 18.8943 66.0254 21.2642 65.0369C23.6341 64.0483 26.3609 65.1699 27.3494 67.5398Z" fill="#7C67CF"/>
<path d="M18.7539 71.1779C20.0887 73.4904 21.3974 74.1469 23.7664 73.9088C26.6257 73.6215 42.9248 64.3804 42.9248 64.3804L40.6889 58.3637L27.8361 62.6274C27.8361 62.6274 22.8107 64.396 21.3865 64.9933C17.7823 66.505 18.2416 70.29 18.7539 71.1779Z" fill="#6D53CF"/>
<path d="M22.6158 74.0283C20.059 73.7901 18.1765 71.5209 18.4146 68.9642C18.6527 66.4074 20.9219 64.5249 23.4787 64.763C26.0354 65.0011 27.918 67.2704 27.6799 69.8271C27.4417 72.3839 25.1725 74.2664 22.6158 74.0283Z" fill="#7C67CF"/>
<path d="M24.4957 53.8433C21.5372 53.5678 19.3588 50.942 19.6343 47.9835C19.9099 45.0249 22.5357 42.8466 25.4942 43.1221C28.4528 43.3977 30.6311 46.0235 30.3556 48.982C30.08 51.9405 27.4542 54.1189 24.4957 53.8433Z" fill="#7C67CF"/>
<path d="M24.2104 43.0729C22.5695 43.1211 20.7913 44.7194 20.1805 45.9035C19.6072 47.0147 19.4642 49.404 18.8551 52.08C18.2458 54.7559 17.4744 68.4311 18.5984 70.8531C19.7225 73.275 21.4849 74.274 23.6576 74.025C25.8304 73.776 27.6067 71.7112 27.7196 70.0156C27.9361 66.7632 28.4041 63.143 28.4041 63.143C28.4041 63.143 29.7723 53.618 30.1763 51.5143C30.5805 49.4106 31.3881 42.8621 24.2104 43.0729Z" fill="#6D52CF"/>
</g>
</g>
<path d="M69.9167 41.8055L90.7873 29.642L69.9167 41.8055Z" fill="#6D52CF"/>
<path d="M69.9167 41.8055L90.7873 29.642" stroke="#A6A4E8" stroke-width="20" stroke-linecap="round"/>
<path d="M69.9161 41.8055L90.8852 53.7983L69.9161 41.8055Z" fill="#6D52CF"/>
<path d="M69.9161 41.8055L90.8852 53.7983" stroke="#A6A4E8" stroke-width="20" stroke-linecap="round"/>
<mask id="mask3_1_219" style="mask-type:alpha" maskUnits="userSpaceOnUse" x="83" y="23" width="15" height="14">
<path d="M97.0876 29.9523C97.0876 33.6219 94.1128 36.5967 90.4432 36.5967C86.7737 36.5967 83.7989 33.6219 83.7989 29.9523C83.7989 26.2828 86.7737 23.308 90.4432 23.308C94.1128 23.308 97.0876 26.2828 97.0876 29.9523Z" fill="#FF0000"/>
</mask>
<g mask="url(#mask3_1_219)">
<path d="M97.0876 29.9523C97.0876 33.6219 94.1128 36.5967 90.4432 36.5967C86.7737 36.5967 83.7989 33.6219 83.7989 29.9523C83.7989 26.2828 86.7737 23.308 90.4432 23.308C94.1128 23.308 97.0876 26.2828 97.0876 29.9523Z" fill="#A6A4E8"/>
<path d="M88.2101 26.1709C88.2519 26.0719 87.6692 26.2555 87.6197 26.2791C87.3312 26.4159 87.1088 26.6187 86.9846 26.918C86.8643 27.2077 86.8432 27.5289 86.8504 27.8425C86.8724 28.8075 87.6012 30.0241 86.9104 30.8845C86.5536 31.3289 85.9284 31.4388 85.4565 31.7583C84.5578 32.3668 84.3762 33.7206 84.8969 34.6727C85.4177 35.6249 86.4812 36.1871 87.5548 36.3465C88.6284 36.5058 89.7215 36.315 90.7801 36.0754C91.5155 35.909 92.2677 35.7082 92.8666 35.2501C94.2782 34.1704 93.6202 32.8179 92.9724 31.5533C92.5572 30.7429 93.3019 30.3612 93.627 29.3553C94.2119 27.5452 93.3741 25.7884 91.774 25.0946C89.1523 23.9579 88.2154 26.1584 88.2101 26.1709Z" fill="#5B4852"/>
<path d="M95.6183 36.5966H85.2683C85.2683 36.5966 85.751 34.7335 86.4377 33.6297C87.1243 32.5253 89.645 32.1496 89.645 32.1496L90.4433 32.2833L91.2417 32.1496C91.2417 32.1496 93.7631 32.5253 94.4497 33.6297C95.1363 34.7335 95.6183 36.5966 95.6183 36.5966Z" fill="url(#paint1_linear_1_219)"/>
<path d="M88.1378 32.5183C89.35 34.2507 91.6424 34.0299 92.75 32.5183C92.75 32.5183 90.528 31.4836 88.1378 32.5183Z" fill="#F1B69A"/>
<path d="M90.424 33.1356C89.9909 33.1356 89.6398 32.7846 89.6398 32.3516V30.8537H91.2082V32.3516C91.2082 32.7846 90.8571 33.1356 90.424 33.1356Z" fill="#F1B69A"/>
<path d="M91.2086 30.6803V31.6C91.2086 31.6 90.9452 32.0578 90.4243 32.0578C90.0058 32.0578 89.6403 31.6609 89.6403 31.6609V30.6803H91.2086Z" fill="#150A08"/>
<path d="M88.2304 29.0703C87.8065 28.4262 87.3146 28.8399 87.3146 29.2934C87.3146 29.95 88.0268 30.5157 88.4339 30.0444C88.8409 29.573 88.2304 29.0703 88.2304 29.0703Z" fill="#F1B69A"/>
<path d="M88.1381 29.3679C87.8742 28.8746 87.5096 29.335 87.6488 29.5177" stroke="#E07E61" stroke-width="0.651772" stroke-miterlimit="10" stroke-linecap="round"/>
<path d="M92.4662 29.0703C92.8902 28.4262 93.382 28.8399 93.382 29.2934C93.382 29.95 92.6698 30.5157 92.2627 30.0444C91.8557 29.573 92.4662 29.0703 92.4662 29.0703Z" fill="#F1B69A"/>
<path d="M92.5584 29.3679C92.8223 28.8746 93.187 29.335 93.0477 29.5177" stroke="#E07E61" stroke-width="0.651772" stroke-miterlimit="10" stroke-linecap="round"/>
<path d="M90.3461 31.5999C88.6705 31.5993 87.6797 29.7683 88.0715 27.8884C88.3941 26.3393 92.302 26.3398 92.6246 27.8884C93.0164 29.7683 92.0225 31.6006 90.3461 31.5999Z" fill="#F1B69A"/>
<g style="mix-blend-mode:multiply" opacity="0.5">
<path d="M90.124 29.718C90.2964 29.8002 90.6849 29.6178 90.693 29.718C90.7011 29.8182 90.4869 29.9068 90.4085 29.9068C90.3301 29.9068 90.124 29.718 90.124 29.718Z" fill="#F1B69A"/>
</g>
<path d="M90.1292 29.2127C89.8847 29.7412 90.2502 29.844 90.3481 29.8567" stroke="#E07E61" stroke-width="0.651772" stroke-miterlimit="10" stroke-linecap="round"/>
<path d="M89.686 27.7724C89.5813 27.5386 88.9677 27.6454 88.8809 27.8119C88.7942 27.9784 89.0812 28.0251 89.2944 28.0147C89.5075 28.0042 89.7527 27.9212 89.686 27.7724Z" fill="#5B4852"/>
<path d="M91.0109 27.7724C91.1156 27.5386 91.7292 27.6454 91.8159 27.8119C91.9027 27.9784 91.6157 28.0251 91.4025 28.0147C91.1894 28.0042 90.9442 27.9212 91.0109 27.7724Z" fill="#150A08"/>
<path d="M89.2428 28.6737C89.2428 28.7668 89.3183 28.8423 89.4114 28.8423C89.5046 28.8423 89.5799 28.7668 89.5799 28.6737C89.5799 28.5805 89.5046 28.5051 89.4114 28.5051C89.3183 28.5051 89.2428 28.5805 89.2428 28.6737Z" fill="#150A08"/>
<path d="M91.4538 28.6737C91.4538 28.7668 91.3784 28.8423 91.2852 28.8423C91.192 28.8423 91.1166 28.7668 91.1166 28.6737C91.1166 28.5805 91.192 28.5051 91.2852 28.5051C91.3784 28.5051 91.4538 28.5805 91.4538 28.6737Z" fill="#150A08"/>
<path d="M89.7211 30.1355C90.3624 30.2045 90.7911 30.1339 91.0954 30.1443C91.0954 30.1443 90.7114 30.6868 90.2597 30.5789C89.808 30.471 89.7211 30.1355 89.7211 30.1355Z" fill="white"/>
<g style="mix-blend-mode:multiply" opacity="0.5">
<path d="M90.1642 30.7366C90.3987 30.7373 90.735 30.6152 90.7871 30.7366C90.8392 30.8581 90.5529 31.1007 90.3752 31.0835C90.1975 31.0662 89.8963 30.736 90.1642 30.7366Z" fill="#F1B69A"/>
</g>
<path d="M89.2428 26.2364C89.2398 27.8148 92.2381 28.5731 92.8194 28.1999C93.4007 27.8268 92.9475 26.4875 91.4162 26.1247C89.8849 25.762 89.2438 25.7663 89.2428 26.2364Z" fill="#5B4852"/>
<path d="M89.2489 26.2252C89.631 26.9878 88.581 28.6712 87.9845 28.5597C87.388 28.4482 87.3881 27.7888 87.8533 27.0071C88.3186 26.2253 89.0677 25.8633 89.2489 26.2252Z" fill="#5B4852"/>
</g>
<mask id="mask4_1_219" style="mask-type:alpha" maskUnits="userSpaceOnUse" x="83" y="47" width="15" height="14">
<path d="M97.0866 53.8251C97.0866 57.4946 94.1118 60.4695 90.4423 60.4695C86.7727 60.4695 83.7979 57.4946 83.7979 53.8251C83.7979 50.1556 86.7727 47.1807 90.4423 47.1807C94.1118 47.1807 97.0866 50.1556 97.0866 53.8251Z" fill="#FF0000"/>
</mask>
<g mask="url(#mask4_1_219)">
<path d="M97.0866 53.8251C97.0866 57.4946 94.1118 60.4695 90.4423 60.4695C86.7727 60.4695 83.7979 57.4946 83.7979 53.8251C83.7979 50.1556 86.7727 47.1807 90.4423 47.1807C94.1118 47.1807 97.0866 50.1556 97.0866 53.8251Z" fill="#A6A4E8"/>
<path d="M92.9533 52.612C93.8677 50.9656 93.1436 50.0217 92.5582 50.3305C92.5582 50.3305 92.4696 49.3095 91.1294 48.694C89.5787 47.9817 87.5759 48.537 87.1855 49.6098C86.8252 50.5999 87.4686 51.0769 87.4686 51.0769C87.4686 51.0769 87.0702 51.7884 87.7517 52.8528C88.4331 53.9172 92.5439 53.3493 92.9533 52.612Z" fill="#5B4852"/>
<path d="M96.2312 60.6075H84.6554C84.6554 60.6075 85.0065 58.666 85.8021 57.5485C86.5977 56.4302 89.5505 56.0224 89.5505 56.0224L90.4433 56.1602L91.3362 56.0224C91.3362 56.0224 94.2899 56.4302 95.0855 57.5485C95.8811 58.666 96.2312 60.6075 96.2312 60.6075Z" fill="url(#paint2_linear_1_219)"/>
<path d="M89.5499 56.0224L88.4066 56.2369C88.4066 56.2369 88.6701 57.5301 89.7154 58.1765L90.4252 57.3067V56.3737L89.5499 56.0224Z" fill="white"/>
<path d="M91.2565 56.0224L92.3997 56.2369C92.3997 56.2369 92.1362 57.5301 91.0909 58.1765L90.3811 57.3067V56.3737L91.2565 56.0224Z" fill="white"/>
<path d="M90.423 57.0084C89.9899 57.0084 89.6389 56.6574 89.6389 56.2243V54.7264H91.2072V56.2243C91.2072 56.6574 90.8561 57.0084 90.423 57.0084Z" fill="#F1B69A"/>
<path d="M91.2076 54.5531V55.4728C91.2076 55.4728 90.9442 55.9306 90.4233 55.9306C90.0048 55.9306 89.6392 55.5337 89.6392 55.5337V54.5531H91.2076Z" fill="#150A08"/>
<path d="M88.2296 52.9431C87.8057 52.299 87.3138 52.7126 87.3138 53.1662C87.3138 53.8228 88.026 54.3885 88.4331 53.9171C88.8401 53.4458 88.2296 52.9431 88.2296 52.9431Z" fill="#F1B69A"/>
<path d="M88.137 53.2407C87.873 52.7474 87.5084 53.2077 87.6477 53.3904" stroke="#E07E61" stroke-width="0.651772" stroke-miterlimit="10" stroke-linecap="round"/>
<path d="M92.4654 52.9431C92.8894 52.299 93.3812 52.7126 93.3812 53.1662C93.3812 53.8228 92.669 54.3885 92.2619 53.9171C91.8549 53.4458 92.4654 52.9431 92.4654 52.9431Z" fill="#F1B69A"/>
<path d="M92.5584 53.2407C92.8223 52.7474 93.187 53.2077 93.0477 53.3904" stroke="#E07E61" stroke-width="0.651772" stroke-miterlimit="10" stroke-linecap="round"/>
<path d="M90.3455 55.4727C88.6699 55.472 87.6791 53.6411 88.0709 51.7611C88.3935 50.2121 92.3013 50.2126 92.624 51.7611C93.0157 53.6411 92.0219 55.4733 90.3455 55.4727Z" fill="#F1B69A"/>
<g style="mix-blend-mode:multiply" opacity="0.5">
<path d="M90.1233 53.5907C90.2958 53.673 90.6843 53.4905 90.6924 53.5907C90.7005 53.6909 90.4863 53.7795 90.4079 53.7795C90.3294 53.7795 90.1233 53.5907 90.1233 53.5907Z" fill="#F1B69A"/>
</g>
<path d="M90.1284 53.0855C89.8839 53.614 90.2494 53.7167 90.3473 53.7295" stroke="#E07E61" stroke-width="0.651772" stroke-miterlimit="10" stroke-linecap="round"/>
<path d="M89.7626 54.0168C90.4095 54.141 90.9224 54.0375 91.1295 53.8718" stroke="#150A08" stroke-width="0.651772" stroke-miterlimit="10" stroke-linecap="round"/>
<path d="M89.6848 51.6451C89.5801 51.4114 88.9666 51.5181 88.8798 51.6846C88.793 51.8511 89.08 51.8979 89.2932 51.8874C89.5063 51.8769 89.7515 51.794 89.6848 51.6451Z" fill="#150A08"/>
<path d="M91.0101 51.6451C91.1148 51.4114 91.7284 51.5181 91.8151 51.6846C91.9019 51.8511 91.6149 51.8979 91.4017 51.8874C91.1886 51.8769 90.9434 51.794 91.0101 51.6451Z" fill="#150A08"/>
<g style="mix-blend-mode:multiply" opacity="0.5">
<path d="M90.1964 54.3355C90.431 54.3361 90.7673 54.214 90.8194 54.3355C90.8715 54.4569 90.5851 54.6996 90.4075 54.6823C90.2298 54.6649 89.9285 54.3348 90.1964 54.3355Z" fill="#F1B69A"/>
</g>
<path d="M89.2416 52.5462C89.2416 52.6394 89.3171 52.7148 89.4102 52.7148C89.5033 52.7148 89.5787 52.6394 89.5787 52.5462C89.5787 52.453 89.5033 52.3776 89.4102 52.3776C89.3171 52.3776 89.2416 52.453 89.2416 52.5462Z" fill="#150A08"/>
<path d="M91.4532 52.5462C91.4532 52.6394 91.3778 52.7148 91.2846 52.7148C91.1914 52.7148 91.116 52.6394 91.116 52.5462C91.116 52.453 91.1914 52.3776 91.2846 52.3776C91.3778 52.3776 91.4532 52.453 91.4532 52.5462Z" fill="#150A08"/>
<path d="M91.8311 50.5996C91.3967 51.5736 90.446 51.0191 90.446 51.0191C90.446 51.0191 89.8225 51.6031 88.8641 51.51C87.9058 51.4168 87.4064 50.2676 88.5731 49.7815C89.7399 49.2954 92.4419 49.2299 91.8311 50.5996Z" fill="#5B4852"/>
</g>
<mask id="mask5_1_219" style="mask-type:alpha" maskUnits="userSpaceOnUse" x="63" y="34" width="14" height="15">
<path d="M69.9494 34.7293C73.6164 34.7293 76.5938 37.7066 76.5938 41.3736C76.5938 45.0407 73.6164 48.018 69.9494 48.018C66.2824 48.018 63.305 45.0407 63.305 41.3736C63.305 37.7066 66.2824 34.7293 69.9494 34.7293Z" fill="#FF0000"/>
</mask>
<g mask="url(#mask5_1_219)">
<path d="M69.978 34.6909C73.6451 34.6909 76.6224 37.6683 76.6224 41.3353C76.6224 45.0023 73.6451 47.9797 69.978 47.9797C66.311 47.9797 63.3337 45.0023 63.3337 41.3353C63.3337 37.6683 66.311 34.6909 69.978 34.6909Z" fill="#A6A4E8"/>
<path d="M71.0114 37.0034C70.7597 35.719 72.1778 34.9389 73.0287 35.8587C73.8795 36.7786 73.245 37.4689 72.3851 37.5539C71.5252 37.639 71.229 36.9708 71.229 36.9708L71.0114 37.0034Z" fill="#5B4852"/>
<path d="M70.3952 36.9531C70.6323 36.2229 71.8891 36.8169 72.1914 37.307C72.4939 37.7971 72.3538 38.5095 72.3538 38.5095L70.3952 36.9531Z" fill="#7B2B1A"/>
<path d="M67.1328 40.1604C66.7526 37.562 68.5709 36.6182 70.1523 36.6531C71.7336 36.6881 72.4813 37.9464 72.4813 37.9464C72.4813 37.9464 73.6127 39.6254 72.2275 41.1659C70.8422 42.7063 67.1328 40.1604 67.1328 40.1604Z" fill="#5B4852"/>
<path d="M75.1532 47.9795H64.8032C64.8032 47.9795 65.2859 46.1164 65.9726 45.0127C66.6592 43.9082 69.1799 43.5326 69.1799 43.5326L69.9782 43.6662L70.7766 43.5326C70.7766 43.5326 73.298 43.9082 73.9846 45.0127C74.6712 46.1164 75.1532 47.9795 75.1532 47.9795Z" fill="url(#paint3_linear_1_219)"/>
<path d="M67.2058 44.0951C68.1788 46.0995 71.134 46.2874 72.7504 44.0951C72.7504 44.0951 70.3937 42.5887 67.2058 44.0951Z" fill="white"/>
<path d="M69.9589 44.5185C69.5258 44.5185 69.1747 44.1676 69.1747 43.7345V42.2366H70.743V43.7345C70.743 44.1676 70.3919 44.5185 69.9589 44.5185Z" fill="#F1B69A"/>
<path d="M70.743 42.0633V42.983C70.743 42.983 70.4796 43.4408 69.9587 43.4408C69.5403 43.4408 69.1747 43.0438 69.1747 43.0438V42.0633H70.743Z" fill="#150A08"/>
<path d="M67.7652 40.4535C67.3413 39.8094 66.8493 40.2231 66.8493 40.6766C66.8493 41.3332 67.5616 41.8989 67.9687 41.4275C68.3757 40.9562 67.7652 40.4535 67.7652 40.4535Z" fill="#F1B69A"/>
<path d="M67.6724 40.7511C67.4085 40.2578 67.0438 40.7181 67.1831 40.9008" stroke="#E07E61" stroke-width="0.651773" stroke-miterlimit="10" stroke-linecap="round"/>
<path d="M72.0005 40.4535C72.4246 39.8094 72.9164 40.2231 72.9164 40.6766C72.9164 41.3332 72.2041 41.8989 71.7971 41.4275C71.3901 40.9562 72.0005 40.4535 72.0005 40.4535Z" fill="#F1B69A"/>
<path d="M72.0934 40.7511C72.3574 40.2578 72.722 40.7181 72.5827 40.9008" stroke="#E07E61" stroke-width="0.651773" stroke-miterlimit="10" stroke-linecap="round"/>
<path d="M69.8806 42.9831C68.205 42.9824 67.2142 41.1515 67.606 39.2716C67.9286 37.7225 71.8364 37.723 72.1591 39.2716C72.5508 41.1515 71.557 42.9838 69.8806 42.9831Z" fill="#F1B69A"/>
<g style="mix-blend-mode:multiply" opacity="0.5">
<path d="M69.6584 41.1011C69.8309 41.1834 70.2193 41.0009 70.2274 41.1011C70.2355 41.2013 70.0213 41.29 69.9429 41.29C69.8645 41.29 69.6584 41.1011 69.6584 41.1011Z" fill="#F1B69A"/>
</g>
<path d="M69.6643 40.5957C69.4198 41.1242 69.7853 41.2269 69.8832 41.2396" stroke="#E07E61" stroke-width="0.651773" stroke-miterlimit="10" stroke-linecap="round"/>
<path d="M69.2203 39.1553C69.1156 38.9216 68.502 39.0283 68.4152 39.1948C68.3285 39.3613 68.6156 39.4081 68.8287 39.3976C69.0418 39.3871 69.287 39.3042 69.2203 39.1553Z" fill="#5B4852"/>
<path d="M70.5452 39.1553C70.6499 38.9216 71.2635 39.0283 71.3502 39.1948C71.437 39.3613 71.15 39.4081 70.9368 39.3976C70.7237 39.3871 70.4785 39.3042 70.5452 39.1553Z" fill="#5B4852"/>
<path d="M68.7771 40.0566C68.7771 40.1498 68.8526 40.2252 68.9456 40.2252C69.0388 40.2252 69.1142 40.1498 69.1142 40.0566C69.1142 39.9634 69.0388 39.8881 68.9456 39.8881C68.8526 39.8881 68.7771 39.9634 68.7771 40.0566Z" fill="#150A08"/>
<path d="M70.989 40.0566C70.989 40.1498 70.9136 40.2252 70.8204 40.2252C70.7272 40.2252 70.6519 40.1498 70.6519 40.0566C70.6519 39.9634 70.7272 39.8881 70.8204 39.8881C70.9136 39.8881 70.989 39.9634 70.989 40.0566Z" fill="#150A08"/>
<path d="M69.2952 41.57C69.9421 41.6942 70.455 41.5907 70.662 41.425" stroke="#150A08" stroke-width="0.651773" stroke-miterlimit="10" stroke-linecap="round"/>
<g style="mix-blend-mode:multiply" opacity="0.5">
<path d="M69.7289 41.8889C69.9635 41.8896 70.2998 41.7675 70.3519 41.8889C70.4039 42.0104 70.1176 42.2532 69.94 42.2358C69.7623 42.2185 69.461 41.8883 69.7289 41.8889Z" fill="#F1B69A"/>
</g>
<path d="M70.2279 37.659C67.4439 38.5756 67.8874 41.1965 68.3997 42.7521C68.3997 42.7521 66.6123 40.1834 67.4126 38.5756C68.2128 36.9678 70.2279 37.659 70.2279 37.659Z" fill="#5B4852"/>
</g>
<path d="M16.7759 25.987C20.444 25.987 23.4221 28.9651 23.4221 32.6332C23.4221 36.3012 20.444 39.2794 16.7759 39.2794C13.1079 39.2794 10.1297 36.3012 10.1297 32.6332C10.1297 28.9651 13.1079 25.987 16.7759 25.987Z" fill="#A6A4E8"/>
<path d="M21.0156 31.2699L17.744 28.3618C17.6375 28.2651 17.4839 28.2412 17.3535 28.3008C17.2227 28.359 17.1391 28.4895 17.1391 28.633V29.7988C16.0471 30.0915 12.4134 31.4561 12.4134 36.6304C12.4134 36.8049 12.5369 36.9542 12.7086 36.9866C12.879 37.0193 13.0495 36.927 13.115 36.7653C14.1927 34.0702 16.2928 33.5078 17.1391 33.3914V34.4493C17.1391 34.5928 17.2227 34.7233 17.3535 34.7816C17.4839 34.8396 17.6375 34.8156 17.744 34.7205L21.0156 31.8124C21.0937 31.7444 21.1377 31.6448 21.1377 31.5411C21.1377 31.4375 21.0937 31.3379 21.0156 31.2699Z" fill="#ECE9F4"/>
</g>
<path d="M55.0579 42.603C57.6916 42.603 59.8263 39.5685 59.8263 35.8246C59.8263 32.0791 57.6916 29.0446 55.0579 29.0446C52.4231 29.0446 50.2884 32.0791 50.2884 35.8246C50.2884 39.5685 52.4231 42.603 55.0579 42.603Z" fill="#7D67CF"/>
<g opacity="0.1">
<path d="M55.0569 41.6534C57.3217 41.6534 59.1575 39.0438 59.1575 35.8243C59.1575 32.6032 57.3217 29.9936 55.0569 29.9936C52.791 29.9936 50.9552 32.6032 50.9552 35.8243C50.9552 39.0438 52.791 41.6534 55.0569 41.6534Z" fill="#318F36"/>
</g>
<path d="M54.8598 39.2639V38.4155C54.5587 38.4079 54.2457 38.2565 54.064 38.0455L54.1887 37.483C54.4049 37.7138 54.6673 37.8407 54.9383 37.8437C55.3072 37.8437 55.5567 37.4998 55.5567 37.0213C55.5567 36.5581 55.3545 36.2737 54.9695 36.0215C54.4382 35.6852 54.1113 35.2984 54.1113 34.5676C54.1113 33.8705 54.4178 33.3416 54.8964 33.2147V32.3662H55.219V33.1811C55.4599 33.1857 55.6943 33.2881 55.8954 33.4746L55.7653 34.0295C55.5728 33.8415 55.3437 33.7421 55.1093 33.7436C54.7092 33.7436 54.5587 34.1304 54.5587 34.4667C54.5587 34.904 54.7512 35.1226 55.2029 35.4253C55.7395 35.7769 56.0094 36.2141 56.0094 36.9617C56.0094 37.6251 55.7234 38.2473 55.1878 38.3895V39.2639H54.8598Z" fill="white"/>
<defs>
<linearGradient id="paint0_linear_1_219" x1="-0.385798" y1="121.286" x2="-18.4712" y2="103.995" gradientUnits="userSpaceOnUse">
<stop stop-color="#EEF4FB"/>
<stop offset="0.45" stop-color="#DFEBF7"/>
<stop offset="1" stop-color="#CFE1F3"/>
</linearGradient>
<linearGradient id="paint1_linear_1_219" x1="85.1378" y1="34.2934" x2="95.4878" y2="34.2934" gradientUnits="userSpaceOnUse">
<stop stop-color="#8A74DC"/>
<stop offset="0.41" stop-color="#634EB5"/>
<stop offset="1" stop-color="#3D278D"/>
</linearGradient>
<linearGradient id="paint2_linear_1_219" x1="84.6063" y1="58.2215" x2="96.1821" y2="58.2215" gradientUnits="userSpaceOnUse">
<stop stop-color="#8A74DC"/>
<stop offset="0.41" stop-color="#634EB5"/>
<stop offset="1" stop-color="#3D278D"/>
</linearGradient>
<linearGradient id="paint3_linear_1_219" x1="64.8004" y1="45.7255" x2="75.1504" y2="45.7255" gradientUnits="userSpaceOnUse">
<stop stop-color="#8A74DC"/>
<stop offset="0.41" stop-color="#634EB5"/>
<stop offset="1" stop-color="#3D278D"/>
</linearGradient>
</defs>
</svg>
