<svg width="106" height="82" viewBox="0 0 106 82" fill="none" xmlns="http://www.w3.org/2000/svg">
<mask id="mask0_1_722" style="mask-type:luminance" maskUnits="userSpaceOnUse" x="-3" y="-24" width="109" height="106">
<path d="M106 -23.2123H-2.43372V81.7653H106V-23.2123Z" fill="white"/>
</mask>
<g mask="url(#mask0_1_722)">
<mask id="mask1_1_722" style="mask-type:luminance" maskUnits="userSpaceOnUse" x="-9" y="-12" width="121" height="117">
<path d="M-8.05329 -11.6893H111.583V104.134H-8.05329V-11.6893Z" fill="white"/>
</mask>
<g mask="url(#mask1_1_722)">
<path d="M79.5732 58.8256C82.2189 53.0029 83.0605 46.3023 81.5557 39.5776C77.8746 23.1274 61.5461 12.7621 45.0849 16.4262C28.6239 20.0902 18.2636 36.3961 21.9447 52.8463C22.3688 54.7415 22.9607 56.5559 23.7014 58.2774" stroke="#ECF6FD" stroke-width="2.20662" stroke-miterlimit="10"/>
<path d="M21.9143 44.9056C22.0163 45.3615 21.7292 45.8133 21.2731 45.9149C20.8169 46.0164 20.3645 45.7292 20.2625 45.2734C20.1605 44.8175 20.4475 44.3657 20.9037 44.2641C21.3599 44.1626 21.8123 44.4498 21.9143 44.9056Z" fill="#F5B74E"/>
</g>
<mask id="mask2_1_722" style="mask-type:luminance" maskUnits="userSpaceOnUse" x="-9" y="-12" width="121" height="117">
<path d="M-8.05329 -11.6893H111.583V104.134H-8.05329V-11.6893Z" fill="white"/>
</mask>
<g mask="url(#mask2_1_722)">
<path d="M85.1236 57.8686C85.4049 57.064 85.6594 56.2435 85.8857 55.4079C90.9882 36.567 79.8416 17.1744 60.9889 12.0934C42.1362 7.0124 22.7167 18.1671 17.6141 37.008C15.7053 44.0563 16.0705 51.182 18.2626 57.6066" stroke="#ECF6FD" stroke-width="2.20662" stroke-miterlimit="10"/>
<path d="M18.1781 37.7259C18.0824 38.0793 17.7182 38.2885 17.3645 38.1931C17.0109 38.0978 16.8017 37.7341 16.8974 37.3807C16.993 37.0273 17.3573 36.8181 17.711 36.9135C18.0647 37.0088 18.2738 37.3726 18.1781 37.7259Z" fill="#3D3F41"/>
<path d="M87.8027 45.4889C87.6439 45.9842 87.1136 46.2574 86.6181 46.0992C86.1226 45.9411 85.8497 45.4115 86.0084 44.9162C86.1671 44.421 86.6975 44.1478 87.1929 44.3059C87.6884 44.4641 87.9615 44.9937 87.8027 45.4889Z" fill="#383838"/>
<path d="M44.0069 12.3089C44.036 14.0667 42.6327 15.5152 40.8726 15.5441C39.1124 15.573 37.6619 14.1715 37.6328 12.4137C37.6037 10.6559 39.0071 9.20745 40.7673 9.17852C42.5274 9.14959 43.9779 10.5511 44.0069 12.3089Z" fill="#484949"/>
<path d="M39.8051 12.9949L40.3994 12.4286L40.9966 12.9753L41.5754 12.4093" stroke="white" stroke-width="0.746356" stroke-linecap="round" stroke-linejoin="round"/>
<path d="M40.7949 14.3237C40.7949 14.3237 40.3348 14.4331 39.8051 14.0309C38.9685 13.3953 39.0583 12.8209 39.0801 12.5124C39.1482 11.5524 40.7079 10.2447 40.7079 10.2447C40.7079 10.2447 42.3101 11.5004 42.4099 12.4576C42.4419 12.7653 42.5506 13.3364 41.7354 13.9991C41.2194 14.4186 40.7559 14.3244 40.7559 14.3244" stroke="white" stroke-width="0.746356" stroke-linecap="round" stroke-linejoin="round"/>
</g>
<mask id="mask3_1_722" style="mask-type:luminance" maskUnits="userSpaceOnUse" x="-9" y="-12" width="121" height="117">
<path d="M-8.05329 -11.6893H111.583V104.134H-8.05329V-11.6893Z" fill="white"/>
</mask>
<g mask="url(#mask3_1_722)">
<path d="M13.0979 58.5943C10.2667 49.7962 10.4172 39.9865 14.2175 30.7666C22.7541 10.0561 46.4744 0.164925 67.1984 8.67407C86.8514 16.7435 96.752 38.4628 90.4425 58.3488" stroke="#ECF6FD" stroke-width="2.20662" stroke-miterlimit="10"/>
<path d="M88.8738 28.0702C88.7966 28.666 88.2506 29.0866 87.6542 29.0098C87.0578 28.9329 86.637 28.3877 86.7141 27.7919C86.7913 27.1962 87.3373 26.7755 87.9337 26.8524C88.5301 26.9292 88.951 27.4745 88.8738 28.0702Z" stroke="#4A4A4A" stroke-width="1.10331" stroke-miterlimit="10"/>
<path d="M92.9964 43.7005C92.933 44.1902 92.4842 44.5361 91.9939 44.4729C91.5037 44.4097 91.1577 43.9614 91.2211 43.4717C91.2845 42.982 91.7334 42.6362 92.2236 42.6994C92.7139 42.7626 93.0599 43.2108 92.9964 43.7005Z" fill="#4A4A4A"/>
<path d="M93.8589 43.8883C93.732 44.8679 92.8344 45.5595 91.8541 45.4331C90.8737 45.3068 90.1817 44.4103 90.3086 43.4308C90.4354 42.4512 91.3331 41.7596 92.3135 41.886C93.2938 42.0123 93.9858 42.9087 93.8589 43.8883Z" stroke="#4A4A4A" stroke-width="1.10331" stroke-miterlimit="10"/>
<path d="M18.7319 23.9318C18.6606 24.4818 18.1565 24.8701 17.606 24.7992C17.0553 24.7282 16.6668 24.2249 16.738 23.6748C16.8093 23.1248 17.3133 22.7364 17.8639 22.8074C18.4145 22.8783 18.8031 23.3817 18.7319 23.9318Z" stroke="#4A4A4A" stroke-width="1.10331" stroke-miterlimit="10"/>
</g>
<mask id="mask4_1_722" style="mask-type:luminance" maskUnits="userSpaceOnUse" x="-9" y="-12" width="121" height="117">
<path d="M-8.05329 -11.6893H111.583V104.134H-8.05329V-11.6893Z" fill="white"/>
</mask>
<g mask="url(#mask4_1_722)">
<path d="M95.0947 58.61C97.4818 50.2859 97.4971 41.1839 94.6198 32.3236C86.9287 8.63905 61.482 -4.34984 37.783 3.31207C14.4899 10.8427 1.55486 35.5202 8.42136 58.8517" stroke="#ECF6FD" stroke-width="2.20662" stroke-miterlimit="10"/>
<path d="M38.0481 3.24762C38.3963 4.32004 37.8089 5.47029 36.7358 5.81721C35.6627 6.16413 34.5109 5.57619 34.1626 4.50377C33.8144 3.43135 34.4018 2.2811 35.4749 1.93418C36.5479 1.58726 37.6998 2.17521 38.0481 3.24762Z" fill="#F5B74E"/>
</g>
<mask id="mask5_1_722" style="mask-type:luminance" maskUnits="userSpaceOnUse" x="-9" y="-12" width="121" height="117">
<path d="M-8.05329 -11.6893H111.583V104.134H-8.05329V-11.6893Z" fill="white"/>
</mask>
<g mask="url(#mask5_1_722)">
<path d="M56.8764 29.7378V55.7954" stroke="#2266EB" stroke-width="1.10331" stroke-miterlimit="10" stroke-dasharray="3.31 3.31"/>
<path d="M68.4766 43.903H27.0182" stroke="#2266EB" stroke-width="1.10331" stroke-miterlimit="10" stroke-dasharray="3.31 3.31"/>
</g>
<mask id="mask6_1_722" style="mask-type:luminance" maskUnits="userSpaceOnUse" x="-9" y="-12" width="121" height="117">
<path d="M-8.05329 -11.6893H111.583V104.134H-8.05329V-11.6893Z" fill="white"/>
</mask>
<g mask="url(#mask6_1_722)">
<path d="M76.8628 52.4885C77.8249 48.6493 77.9164 44.5302 76.9646 40.4075C73.7494 26.4803 59.8454 17.7848 45.9092 20.9854C31.973 24.186 23.282 38.0708 26.4972 51.998C27.319 55.5575 28.8389 58.7753 30.8791 61.54" stroke="#ECF6FD" stroke-width="2.20662" stroke-miterlimit="10"/>
<path d="M57.2731 20.6924C57.3782 21.1476 57.0942 21.6012 56.6387 21.7059C56.1832 21.8105 55.7289 21.5264 55.6238 21.0712C55.5187 20.616 55.8027 20.1623 56.2582 20.0577C56.7137 19.9531 57.168 20.2372 57.2731 20.6924Z" fill="#F5B74E"/>
</g>
<mask id="mask7_1_722" style="mask-type:luminance" maskUnits="userSpaceOnUse" x="-9" y="-12" width="121" height="117">
<path d="M-8.05329 -11.6893H111.583V104.134H-8.05329V-11.6893Z" fill="white"/>
</mask>
<g mask="url(#mask7_1_722)">
<path d="M75.3293 57.1998H25.8274C25.2941 57.1998 24.8618 56.7681 24.8618 56.2356V23.8801C24.8618 23.3476 25.2941 22.9159 25.8274 22.9159H75.3293C75.8625 22.9159 76.2949 23.3476 76.2949 23.8801V56.2356C76.2949 56.7681 75.8625 57.1998 75.3293 57.1998Z" fill="white"/>
<path d="M75.3293 57.1998H25.8274C25.2941 57.1998 24.8618 56.7681 24.8618 56.2356V23.8801C24.8618 23.3476 25.2941 22.9159 25.8274 22.9159H75.3293C75.8625 22.9159 76.2949 23.3476 76.2949 23.8801V56.2356C76.2949 56.7681 75.8625 57.1998 75.3293 57.1998Z" stroke="#303030" stroke-width="3.30993" stroke-miterlimit="10"/>
<path d="M99.7579 58.8906H0.119449C0.0534566 58.8906 0 58.8373 0 58.7714V57.7762C0 57.7102 0.0534566 57.6569 0.119449 57.6569H99.7579C99.8238 57.6569 99.8773 57.7102 99.8773 57.7762V58.7714C99.8773 58.8373 99.8238 58.8906 99.7579 58.8906Z" fill="#6B6B6B"/>
<path d="M75.3266 23.0561H25.8342C25.3761 23.0561 25.0047 23.4269 25.0047 23.8844V25.2729H76.1561V23.8844C76.1561 23.4269 75.7847 23.0561 75.3266 23.0561Z" fill="#DEEEFC"/>
<path d="M27.5984 31.561H49.3886V30.4353H27.5984V31.561Z" fill="#EBEFF8"/>
<path d="M27.4359 36.2788H49.2262V32.7087H27.4359V36.2788Z" fill="#EBEFF8"/>
<path d="M31.3693 24.2274C31.3556 24.5274 31.1008 24.7596 30.8003 24.7459C30.4999 24.7321 30.2675 24.4778 30.2812 24.1777C30.2949 23.8776 30.5497 23.6455 30.8502 23.6592C31.1506 23.673 31.3831 23.9273 31.3693 24.2274Z" fill="#71BE46"/>
<path d="M29.3099 24.1651C29.3099 24.4655 29.0661 24.709 28.7653 24.709C28.4645 24.709 28.2207 24.4655 28.2207 24.1651C28.2207 23.8648 28.4645 23.6213 28.7653 23.6213C29.0661 23.6213 29.3099 23.8648 29.3099 24.1651Z" fill="#DFC04B"/>
<path d="M27.2243 24.1602C27.2243 24.4606 26.9804 24.7041 26.6796 24.7041C26.3789 24.7041 26.135 24.4606 26.135 24.1602C26.135 23.8599 26.3789 23.6163 26.6796 23.6163C26.9804 23.6163 27.2243 23.8599 27.2243 24.1602Z" fill="#EC645A"/>
<path d="M72.4885 46.2219H31.0302" stroke="#494949" stroke-width="1.10331" stroke-miterlimit="10" stroke-dasharray="3.31 3.31"/>
<path d="M51.7656 33.1814V59.239" stroke="#272727" stroke-width="1.10331" stroke-miterlimit="10" stroke-dasharray="3.31 3.31"/>
<path d="M72.4438 31.6276C72.4438 31.8482 72.2647 32.0271 72.0438 32.0271C71.8227 32.0271 71.6436 31.8482 71.6436 31.6276C71.6436 31.407 71.8227 31.2281 72.0438 31.2281C72.2647 31.2281 72.4438 31.407 72.4438 31.6276Z" fill="#414141"/>
<path d="M70.9978 31.6276C70.9978 31.8482 70.8187 32.0271 70.5978 32.0271C70.3767 32.0271 70.1976 31.8482 70.1976 31.6276C70.1976 31.407 70.3767 31.2281 70.5978 31.2281C70.8187 31.2281 70.9978 31.407 70.9978 31.6276Z" fill="#363636"/>
<path d="M69.5382 31.6276C69.5382 31.8482 69.359 32.0271 69.1381 32.0271C68.9171 32.0271 68.738 31.8482 68.738 31.6276C68.738 31.407 68.9171 31.2281 69.1381 31.2281C69.359 31.2281 69.5382 31.407 69.5382 31.6276Z" fill="#393899"/>
<path d="M68.1317 31.6276C68.1317 31.8482 67.9525 32.0271 67.7316 32.0271C67.5106 32.0271 67.3315 31.8482 67.3315 31.6276C67.3315 31.407 67.5106 31.2281 67.7316 31.2281C67.9525 31.2281 68.1317 31.407 68.1317 31.6276Z" fill="#F5B74E"/>
<path d="M66.654 31.6276C66.654 31.8482 66.475 32.0271 66.254 32.0271C66.0329 32.0271 65.8538 31.8482 65.8538 31.6276C65.8538 31.407 66.0329 31.2281 66.254 31.2281C66.475 31.2281 66.654 31.407 66.654 31.6276Z" fill="#F3B63E"/>
<path d="M65.2249 31.6276C65.2249 31.8482 65.0457 32.0271 64.8248 32.0271C64.6038 32.0271 64.4247 31.8482 64.4247 31.6276C64.4247 31.407 64.6038 31.2281 64.8248 31.2281C65.0457 31.2281 65.2249 31.407 65.2249 31.6276Z" fill="#8A67F6"/>
<path d="M63.7841 31.6276C63.7841 31.8482 63.605 32.0271 63.3841 32.0271C63.1631 32.0271 62.9839 31.8482 62.9839 31.6276C62.9839 31.407 63.1631 31.2281 63.3841 31.2281C63.605 31.2281 63.7841 31.407 63.7841 31.6276Z" fill="#434446"/>
<path d="M72.4388 33.8496C72.4388 34.0702 72.2595 34.2491 72.0386 34.2491C71.8176 34.2491 71.6384 34.0702 71.6384 33.8496C71.6384 33.629 71.8176 33.45 72.0386 33.45C72.2595 33.45 72.4388 33.629 72.4388 33.8496Z" fill="#525252"/>
<path d="M70.9914 33.8496C70.9914 34.0702 70.8122 34.2491 70.5912 34.2491C70.3702 34.2491 70.191 34.0702 70.191 33.8496C70.191 33.629 70.3702 33.45 70.5912 33.45C70.8122 33.45 70.9914 33.629 70.9914 33.8496Z" fill="#8A67F6"/>
<path d="M69.5326 33.8498C69.5326 34.0704 69.3535 34.2494 69.1326 34.2494C68.9116 34.2494 68.7324 34.0704 68.7324 33.8498C68.7324 33.6292 68.9116 33.4503 69.1326 33.4503C69.3535 33.4503 69.5326 33.6292 69.5326 33.8498Z" fill="#F3B63E"/>
<path d="M68.1261 33.8496C68.1261 34.0702 67.9471 34.2491 67.7261 34.2491C67.5051 34.2491 67.326 34.0702 67.326 33.8496C67.326 33.629 67.5051 33.45 67.7261 33.45C67.9471 33.45 68.1261 33.629 68.1261 33.8496Z" fill="#F3B63E"/>
<path d="M66.6495 33.8496C66.6495 34.0702 66.4704 34.2491 66.2495 34.2491C66.0285 34.2491 65.8493 34.0702 65.8493 33.8496C65.8493 33.629 66.0285 33.45 66.2495 33.45C66.4704 33.45 66.6495 33.629 66.6495 33.8496Z" fill="#393899"/>
<path d="M65.2196 33.8493C65.2196 34.0699 65.0405 34.2489 64.8196 34.2489C64.5985 34.2489 64.4194 34.0699 64.4194 33.8493C64.4194 33.6287 64.5985 33.4498 64.8196 33.4498C65.0405 33.4498 65.2196 33.6287 65.2196 33.8493Z" fill="#3F3F3F"/>
<path d="M63.778 33.8493C63.778 34.0699 63.5988 34.2489 63.3779 34.2489C63.1569 34.2489 62.9778 34.0699 62.9778 33.8493C62.9778 33.6287 63.1569 33.4498 63.3779 33.4498C63.5988 33.4498 63.778 33.6287 63.778 33.8493Z" fill="#5A5A5A"/>
<path d="M81.5507 57.6566H19.6392C19.3987 57.6566 19.2038 57.462 19.2038 57.2219V55.8066C19.2038 55.5665 19.3987 55.3719 19.6392 55.3719H81.5507C81.7911 55.3719 81.9861 55.5665 81.9861 55.8066V57.2219C81.9861 57.462 81.7911 57.6566 81.5507 57.6566Z" fill="#131313"/>
<path d="M81.1817 40.3955H71.4121H71.0802C71.0802 40.3955 71.3662 42.5203 69.2956 42.7717C69.2956 42.7717 67.774 49.9916 76.2168 55.2523L76.4055 55.3552H76.1786L76.3673 55.2523C84.8101 49.9916 83.2885 42.7717 83.2885 42.7717C81.2179 42.5203 81.5039 40.3955 81.5039 40.3955H81.1721H71.4024" fill="#EBEEF8"/>
<path d="M82.4891 40.4752H72.7195H72.3877C72.3877 40.4752 72.6736 42.6 70.603 42.8514C70.603 42.8514 69.0814 50.0713 77.5242 55.332L77.7129 55.435H77.4861L77.6747 55.332C86.1175 50.0713 84.5959 42.8514 84.5959 42.8514C82.5253 42.6 82.8113 40.4752 82.8113 40.4752H82.4795H72.7098" fill="#5AC59D"/>
<path d="M82.4891 40.4752H72.7195H72.3877C72.3877 40.4752 72.6736 42.6 70.603 42.8514C70.603 42.8514 69.0814 50.0713 77.5242 55.332L77.7129 55.435H77.4861L77.6747 55.332C86.1175 50.0713 84.5959 42.8514 84.5959 42.8514C82.5253 42.6 82.8113 40.4752 82.8113 40.4752H82.4795H72.7098" stroke="#4A4A4A" stroke-width="1.10331" stroke-miterlimit="10"/>
<mask id="mask8_1_722" style="mask-type:luminance" maskUnits="userSpaceOnUse" x="-9" y="-12" width="121" height="117">
<path d="M-8.05238 -11.6898H111.584V104.133H-8.05238V-11.6898Z" fill="white"/>
</mask>
<g mask="url(#mask8_1_722)">
<path d="M82.1029 47.2095C82.1029 49.484 80.2565 51.3279 77.9788 51.3279C75.7011 51.3279 73.8547 49.484 73.8547 47.2095C73.8547 44.935 75.7011 43.0911 77.9788 43.0911C80.2565 43.0911 82.1029 44.935 82.1029 47.2095Z" stroke="white" stroke-width="2.20662" stroke-miterlimit="10"/>
<path d="M82.748 47.2168C82.748 47.7279 82.3331 48.1421 81.8214 48.1421C81.3096 48.1421 80.8947 47.7279 80.8947 47.2168C80.8947 46.7058 81.3096 46.2916 81.8214 46.2916C82.3331 46.2916 82.748 46.7058 82.748 47.2168Z" fill="white"/>
<path d="M82.748 47.2168C82.748 47.7279 82.3331 48.1421 81.8214 48.1421C81.3096 48.1421 80.8947 47.7279 80.8947 47.2168C80.8947 46.7058 81.3096 46.2916 81.8214 46.2916C82.3331 46.2916 82.748 46.7058 82.748 47.2168Z" stroke="#5AC59D" stroke-width="2.20662" stroke-miterlimit="10"/>
<path d="M74.987 47.247C74.987 47.7581 74.5721 48.1724 74.0603 48.1724C73.5486 48.1724 73.1337 47.7581 73.1337 47.247C73.1337 46.736 73.5486 46.3218 74.0603 46.3218C74.5721 46.3218 74.987 46.736 74.987 47.247Z" fill="white"/>
<path d="M74.987 47.247C74.987 47.7581 74.5721 48.1724 74.0603 48.1724C73.5486 48.1724 73.1337 47.7581 73.1337 47.247C73.1337 46.736 73.5486 46.3218 74.0603 46.3218C74.5721 46.3218 74.987 46.736 74.987 47.247Z" stroke="#5AC59D" stroke-width="2.20662" stroke-miterlimit="10"/>
<path d="M77.9356 45.4203V49.3273" stroke="white" stroke-width="2.20662" stroke-linecap="round" stroke-linejoin="round"/>
<path d="M76.3514 46.7455L77.9348 45.2147L79.6232 46.7455" stroke="white" stroke-width="2.20662" stroke-linecap="round" stroke-linejoin="round"/>
</g>
</g>
<mask id="mask9_1_722" style="mask-type:luminance" maskUnits="userSpaceOnUse" x="-9" y="-12" width="121" height="117">
<path d="M-8.05329 -11.6893H111.583V104.134H-8.05329V-11.6893Z" fill="white"/>
</mask>
<g mask="url(#mask9_1_722)">
<path d="M30.3598 41.3668L35.5421 47.0559L40.5986 45.8908C40.5986 45.8908 41.1109 46.4289 41.7772 47.1288" stroke="#62CDF6" stroke-width="2.20662" stroke-miterlimit="10"/>
<path d="M36.2354 46.9375C36.2354 47.351 35.8997 47.6863 35.4855 47.6863C35.0715 47.6863 34.7357 47.351 34.7357 46.9375C34.7357 46.524 35.0715 46.1887 35.4855 46.1887C35.8997 46.1887 36.2354 46.524 36.2354 46.9375Z" fill="white"/>
<path d="M36.2354 46.9375C36.2354 47.351 35.8997 47.6863 35.4855 47.6863C35.0715 47.6863 34.7357 47.351 34.7357 46.9375C34.7357 46.524 35.0715 46.1887 35.4855 46.1887C35.8997 46.1887 36.2354 46.524 36.2354 46.9375Z" stroke="#62CDF6" stroke-width="2.20662" stroke-miterlimit="10"/>
<path d="M30.6524 40.723C30.6524 41.1366 30.3167 41.4718 29.9025 41.4718C29.4884 41.4718 29.1527 41.1366 29.1527 40.723C29.1527 40.3096 29.4884 39.9743 29.9025 39.9743C30.3167 39.9743 30.6524 40.3096 30.6524 40.723Z" fill="white"/>
<path d="M30.6524 40.723C30.6524 41.1366 30.3167 41.4718 29.9025 41.4718C29.4884 41.4718 29.1527 41.1366 29.1527 40.723C29.1527 40.3096 29.4884 39.9743 29.9025 39.9743C30.3167 39.9743 30.6524 40.3096 30.6524 40.723Z" stroke="#62CDF6" stroke-width="2.20662" stroke-miterlimit="10"/>
</g>
</g>
</svg>
